<?xml version="1.0" encoding="us-ascii" standalone="no"?><svg xmlns="http://www.w3.org/2000/svg" xmlns:xlink="http://www.w3.org/1999/xlink" contentStyleType="text/css" height="299px" preserveAspectRatio="none" style="width:1260px;height:299px;background:#FFFFFF;" version="1.1" viewBox="0 0 1260 299" width="1260px" zoomAndPan="magnify"><defs/><g><!--entity SomethingHappened_Input--><g id="elem_SomethingHappened_Input"><path d="M11,160.5 L21,160.5 C26,160.5 26,165.5 26,165.5 C26,165.5 26,170.5 21,170.5 L11,170.5 C6,170.5 6,165.5 6,165.5 C6,165.5 6,160.5 11,160.5 " fill="#000000" style="stroke:#000000;stroke-width:0.5;"/><path d="M21,160.5 C16,160.5 16,165.5 16,165.5 C16,170.5 21,170.5 21,170.5 " fill="none" style="stroke:#000000;stroke-width:0.5;"/></g><!--entity SomethingHappened--><g id="elem_SomethingHappened"><path d="M792,133.5 L792,197.3906 A2.5,2.5 0 0 0 794.5,199.8906 L989.5,199.8906 A2.5,2.5 0 0 0 992,197.3906 L992,141 L982,131 L794.5,131 A2.5,2.5 0 0 0 792,133.5 " fill="#FF8B00" style="stroke:#181818;stroke-width:0.5;"/><path d="M982,131 L982,138.5 A2.5,2.5 0 0 0 984.5,141 L992,141 " fill="#FF8B00" style="stroke:#181818;stroke-width:0.5;"/><text fill="#000000" font-family="sans-serif" font-size="14" font-style="italic" lengthAdjust="spacing" textLength="111" x="836.5" y="153.9951">&#171;DomainEvent&#187;</text><text fill="#000000" font-family="sans-serif" font-size="14" lengthAdjust="spacing" textLength="9" x="824.5" y="170.292">A</text><text fill="#000000" font-family="sans-serif" font-size="14" lengthAdjust="spacing" textLength="4" x="833.5" y="170.292">&#160;</text><text fill="#000000" font-family="sans-serif" font-size="14" lengthAdjust="spacing" textLength="35" x="837.5" y="170.292">state</text><text fill="#000000" font-family="sans-serif" font-size="14" lengthAdjust="spacing" textLength="4" x="872.5" y="170.292">&#160;</text><text fill="#000000" font-family="sans-serif" font-size="14" lengthAdjust="spacing" textLength="52" x="876.5" y="170.292">change</text><text fill="#000000" font-family="sans-serif" font-size="14" lengthAdjust="spacing" textLength="4" x="928.5" y="170.292">&#160;</text><text fill="#000000" font-family="sans-serif" font-size="14" lengthAdjust="spacing" textLength="27" x="932.5" y="170.292">that</text><text fill="#000000" font-family="sans-serif" font-size="14" lengthAdjust="spacing" textLength="71" x="802" y="186.5889">happened</text><text fill="#000000" font-family="sans-serif" font-size="14" lengthAdjust="spacing" textLength="4" x="873" y="186.5889">&#160;</text><text fill="#000000" font-family="sans-serif" font-size="14" lengthAdjust="spacing" textLength="12" x="877" y="186.5889">in</text><text fill="#000000" font-family="sans-serif" font-size="14" lengthAdjust="spacing" textLength="4" x="889" y="186.5889">&#160;</text><text fill="#000000" font-family="sans-serif" font-size="14" lengthAdjust="spacing" textLength="8" x="893" y="186.5889">a</text><text fill="#000000" font-family="sans-serif" font-size="14" lengthAdjust="spacing" textLength="4" x="901" y="186.5889">&#160;</text><text fill="#000000" font-family="sans-serif" font-size="14" lengthAdjust="spacing" textLength="77" x="905" y="186.5889">subdomain</text></g><!--entity SomethingHappened_Aggregate--><g id="elem_SomethingHappened_Aggregate"><path d="M781,8.5 L781,104.9844 A2.5,2.5 0 0 0 783.5,107.4844 L996.5,107.4844 A2.5,2.5 0 0 0 999,104.9844 L999,16 L989,6 L783.5,6 A2.5,2.5 0 0 0 781,8.5 " fill="#FFEE88" style="stroke:#181818;stroke-width:0.5;"/><path d="M989,6 L989,13.5 A2.5,2.5 0 0 0 991.5,16 L999,16 " fill="#FFEE88" style="stroke:#181818;stroke-width:0.5;"/><text fill="#000000" font-family="sans-serif" font-size="14" font-style="italic" lengthAdjust="spacing" textLength="91" x="844.5" y="28.9951">&#171;Aggregate&#187;</text><text fill="#000000" font-family="sans-serif" font-size="14" lengthAdjust="spacing" textLength="39" x="815.5" y="45.292">Holds</text><text fill="#000000" font-family="sans-serif" font-size="14" lengthAdjust="spacing" textLength="4" x="854.5" y="45.292">&#160;</text><text fill="#000000" font-family="sans-serif" font-size="14" lengthAdjust="spacing" textLength="8" x="858.5" y="45.292">a</text><text fill="#000000" font-family="sans-serif" font-size="14" lengthAdjust="spacing" textLength="4" x="866.5" y="45.292">&#160;</text><text fill="#000000" font-family="sans-serif" font-size="14" lengthAdjust="spacing" textLength="35" x="870.5" y="45.292">state</text><text fill="#000000" font-family="sans-serif" font-size="14" lengthAdjust="spacing" textLength="4" x="905.5" y="45.292">&#160;</text><text fill="#000000" font-family="sans-serif" font-size="14" lengthAdjust="spacing" textLength="26" x="909.5" y="45.292">and</text><text fill="#000000" font-family="sans-serif" font-size="14" lengthAdjust="spacing" textLength="4" x="935.5" y="45.292">&#160;</text><text fill="#000000" font-family="sans-serif" font-size="14" lengthAdjust="spacing" textLength="25" x="939.5" y="45.292">has</text><text fill="#000000" font-family="sans-serif" font-size="14" lengthAdjust="spacing" textLength="67" x="803.5" y="61.5889">behaviors</text><text fill="#000000" font-family="sans-serif" font-size="14" lengthAdjust="spacing" textLength="4" x="870.5" y="61.5889">&#160;</text><text fill="#000000" font-family="sans-serif" font-size="14" lengthAdjust="spacing" textLength="18" x="874.5" y="61.5889">for</text><text fill="#000000" font-family="sans-serif" font-size="14" lengthAdjust="spacing" textLength="4" x="892.5" y="61.5889">&#160;</text><text fill="#000000" font-family="sans-serif" font-size="14" lengthAdjust="spacing" textLength="64" x="896.5" y="61.5889">changing</text><text fill="#000000" font-family="sans-serif" font-size="14" lengthAdjust="spacing" textLength="4" x="960.5" y="61.5889">&#160;</text><text fill="#000000" font-family="sans-serif" font-size="14" lengthAdjust="spacing" textLength="12" x="964.5" y="61.5889">it.</text><text fill="#000000" font-family="sans-serif" font-size="14" lengthAdjust="spacing" textLength="51" x="791" y="77.8857">Informs</text><text fill="#000000" font-family="sans-serif" font-size="14" lengthAdjust="spacing" textLength="4" x="842" y="77.8857">&#160;</text><text fill="#000000" font-family="sans-serif" font-size="14" lengthAdjust="spacing" textLength="40" x="846" y="77.8857">about</text><text fill="#000000" font-family="sans-serif" font-size="14" lengthAdjust="spacing" textLength="4" x="886" y="77.8857">&#160;</text><text fill="#000000" font-family="sans-serif" font-size="14" lengthAdjust="spacing" textLength="35" x="890" y="77.8857">state</text><text fill="#000000" font-family="sans-serif" font-size="14" lengthAdjust="spacing" textLength="4" x="925" y="77.8857">&#160;</text><text fill="#000000" font-family="sans-serif" font-size="14" lengthAdjust="spacing" textLength="60" x="929" y="77.8857">changes</text><text fill="#000000" font-family="sans-serif" font-size="14" lengthAdjust="spacing" textLength="18" x="826" y="94.1826">via</text><text fill="#000000" font-family="sans-serif" font-size="14" lengthAdjust="spacing" textLength="4" x="844" y="94.1826">&#160;</text><text fill="#000000" font-family="sans-serif" font-size="14" lengthAdjust="spacing" textLength="51" x="848" y="94.1826">domain</text><text fill="#000000" font-family="sans-serif" font-size="14" lengthAdjust="spacing" textLength="4" x="899" y="94.1826">&#160;</text><text fill="#000000" font-family="sans-serif" font-size="14" lengthAdjust="spacing" textLength="51" x="903" y="94.1826">events.</text></g><!--entity SomethingHappened_System--><g id="elem_SomethingHappened_System"><path d="M582.5,125.5 L582.5,205.6875 A2.5,2.5 0 0 0 585,208.1875 L777,208.1875 A2.5,2.5 0 0 0 779.5,205.6875 L779.5,133 L769.5,123 L585,123 A2.5,2.5 0 0 0 582.5,125.5 " fill="#FCD5ED" style="stroke:#181818;stroke-width:0.5;"/><path d="M769.5,123 L769.5,130.5 A2.5,2.5 0 0 0 772,133 L779.5,133 " fill="#FCD5ED" style="stroke:#181818;stroke-width:0.5;"/><text fill="#000000" font-family="sans-serif" font-size="14" font-style="italic" lengthAdjust="spacing" textLength="69" x="646.5" y="145.9951">&#171;System&#187;</text><text fill="#000000" font-family="sans-serif" font-size="14" lengthAdjust="spacing" textLength="62" x="592.5" y="162.292">Performs</text><text fill="#000000" font-family="sans-serif" font-size="14" lengthAdjust="spacing" textLength="4" x="654.5" y="162.292">&#160;</text><text fill="#000000" font-family="sans-serif" font-size="14" lengthAdjust="spacing" textLength="8" x="658.5" y="162.292">a</text><text fill="#000000" font-family="sans-serif" font-size="14" lengthAdjust="spacing" textLength="4" x="666.5" y="162.292">&#160;</text><text fill="#000000" font-family="sans-serif" font-size="14" lengthAdjust="spacing" textLength="69" x="670.5" y="162.292">command</text><text fill="#000000" font-family="sans-serif" font-size="14" lengthAdjust="spacing" textLength="4" x="739.5" y="162.292">&#160;</text><text fill="#000000" font-family="sans-serif" font-size="14" lengthAdjust="spacing" textLength="26" x="743.5" y="162.292">e.g.</text><text fill="#000000" font-family="sans-serif" font-size="14" lengthAdjust="spacing" textLength="55" x="601.5" y="178.5889">External</text><text fill="#000000" font-family="sans-serif" font-size="14" lengthAdjust="spacing" textLength="4" x="656.5" y="178.5889">&#160;</text><text fill="#000000" font-family="sans-serif" font-size="14" lengthAdjust="spacing" textLength="100" x="660.5" y="178.5889">Authentication</text><text fill="#000000" font-family="sans-serif" font-size="14" lengthAdjust="spacing" textLength="51" x="655.5" y="194.8857">System</text></g><!--entity SomethingHappened_Command--><g id="elem_SomethingHappened_Command"><path d="M390,141.5 L390,189.0938 A2.5,2.5 0 0 0 392.5,191.5938 L567.5,191.5938 A2.5,2.5 0 0 0 570,189.0938 L570,149 L560,139 L392.5,139 A2.5,2.5 0 0 0 390,141.5 " fill="#25ABFD" style="stroke:#181818;stroke-width:0.5;"/><path d="M560,139 L560,146.5 A2.5,2.5 0 0 0 562.5,149 L570,149 " fill="#25ABFD" style="stroke:#181818;stroke-width:0.5;"/><text fill="#000000" font-family="sans-serif" font-size="14" font-style="italic" lengthAdjust="spacing" textLength="89" x="435.5" y="161.9951">&#171;Command&#187;</text><text fill="#000000" font-family="sans-serif" font-size="14" lengthAdjust="spacing" textLength="53" x="400" y="178.292">Initiates</text><text fill="#000000" font-family="sans-serif" font-size="14" lengthAdjust="spacing" textLength="4" x="453" y="178.292">&#160;</text><text fill="#000000" font-family="sans-serif" font-size="14" lengthAdjust="spacing" textLength="8" x="457" y="178.292">a</text><text fill="#000000" font-family="sans-serif" font-size="14" lengthAdjust="spacing" textLength="4" x="465" y="178.292">&#160;</text><text fill="#000000" font-family="sans-serif" font-size="14" lengthAdjust="spacing" textLength="35" x="469" y="178.292">state</text><text fill="#000000" font-family="sans-serif" font-size="14" lengthAdjust="spacing" textLength="4" x="504" y="178.292">&#160;</text><text fill="#000000" font-family="sans-serif" font-size="14" lengthAdjust="spacing" textLength="52" x="508" y="178.292">change</text></g><!--entity SomethingHappened_Policy--><g id="elem_SomethingHappened_Policy"><path d="M38,125.5 L38,205.6875 A2.5,2.5 0 0 0 40.5,208.1875 L201.5,208.1875 A2.5,2.5 0 0 0 204,205.6875 L204,133 L194,123 L40.5,123 A2.5,2.5 0 0 0 38,125.5 " fill="#E9BEFF" style="stroke:#181818;stroke-width:0.5;"/><path d="M194,123 L194,130.5 A2.5,2.5 0 0 0 196.5,133 L204,133 " fill="#E9BEFF" style="stroke:#181818;stroke-width:0.5;"/><text fill="#000000" font-family="sans-serif" font-size="14" font-style="italic" lengthAdjust="spacing" textLength="57" x="92.5" y="145.9951">&#171;Policy&#187;</text><text fill="#000000" font-family="sans-serif" font-size="14" lengthAdjust="spacing" textLength="26" x="55" y="162.292">Has</text><text fill="#000000" font-family="sans-serif" font-size="14" lengthAdjust="spacing" textLength="4" x="81" y="162.292">&#160;</text><text fill="#000000" font-family="sans-serif" font-size="14" lengthAdjust="spacing" textLength="14" x="85" y="162.292">to</text><text fill="#000000" font-family="sans-serif" font-size="14" lengthAdjust="spacing" textLength="4" x="99" y="162.292">&#160;</text><text fill="#000000" font-family="sans-serif" font-size="14" lengthAdjust="spacing" textLength="18" x="103" y="162.292">be</text><text fill="#000000" font-family="sans-serif" font-size="14" lengthAdjust="spacing" textLength="4" x="121" y="162.292">&#160;</text><text fill="#000000" font-family="sans-serif" font-size="14" lengthAdjust="spacing" textLength="62" x="125" y="162.292">enforced</text><text fill="#000000" font-family="sans-serif" font-size="14" lengthAdjust="spacing" textLength="68" x="48" y="178.5889">whenever</text><text fill="#000000" font-family="sans-serif" font-size="14" lengthAdjust="spacing" textLength="4" x="116" y="178.5889">&#160;</text><text fill="#000000" font-family="sans-serif" font-size="14" lengthAdjust="spacing" textLength="74" x="120" y="178.5889">something</text><text fill="#000000" font-family="sans-serif" font-size="14" lengthAdjust="spacing" textLength="61" x="90.5" y="194.8857">happens</text></g><!--entity SomethingHappened_User--><g id="elem_SomethingHappened_User"><ellipse cx="297" cy="139.384" fill="#FDF72D" rx="19.384" ry="19.384" style="stroke:#181818;stroke-width:0.5;"/><rect fill="#FDF72D" height="52.5938" rx="19.384" ry="19.384" style="stroke:#181818;stroke-width:0.5;" width="162" x="216" y="158.768"/><text fill="#000000" font-family="sans-serif" font-size="14" font-style="italic" lengthAdjust="spacing" textLength="49" x="272.5" y="181.7632">&#171;User&#187;</text><text fill="#000000" font-family="sans-serif" font-size="14" lengthAdjust="spacing" textLength="57" x="226" y="198.06">Triggers</text><text fill="#000000" font-family="sans-serif" font-size="14" lengthAdjust="spacing" textLength="4" x="283" y="198.06">&#160;</text><text fill="#000000" font-family="sans-serif" font-size="14" lengthAdjust="spacing" textLength="8" x="287" y="198.06">a</text><text fill="#000000" font-family="sans-serif" font-size="14" lengthAdjust="spacing" textLength="4" x="295" y="198.06">&#160;</text><text fill="#000000" font-family="sans-serif" font-size="14" lengthAdjust="spacing" textLength="69" x="299" y="198.06">command</text></g><!--entity SomethingHappened_ReadModel--><g id="elem_SomethingHappened_ReadModel"><path d="M579.5,226.5 L579.5,290.3906 A2.5,2.5 0 0 0 582,292.8906 L790,292.8906 A2.5,2.5 0 0 0 792.5,290.3906 L792.5,234 L782.5,224 L582,224 A2.5,2.5 0 0 0 579.5,226.5 " fill="#B3E300" style="stroke:#181818;stroke-width:0.5;"/><path d="M782.5,224 L782.5,231.5 A2.5,2.5 0 0 0 785,234 L792.5,234 " fill="#B3E300" style="stroke:#181818;stroke-width:0.5;"/><text fill="#000000" font-family="sans-serif" font-size="14" font-style="italic" lengthAdjust="spacing" textLength="96" x="638" y="246.9951">&#171;ReadModel&#187;</text><text fill="#000000" font-family="sans-serif" font-size="14" lengthAdjust="spacing" textLength="32" x="589.5" y="263.292">Data</text><text fill="#000000" font-family="sans-serif" font-size="14" lengthAdjust="spacing" textLength="4" x="621.5" y="263.292">&#160;</text><text fill="#000000" font-family="sans-serif" font-size="14" lengthAdjust="spacing" textLength="54" x="625.5" y="263.292">needed</text><text fill="#000000" font-family="sans-serif" font-size="14" lengthAdjust="spacing" textLength="4" x="679.5" y="263.292">&#160;</text><text fill="#000000" font-family="sans-serif" font-size="14" lengthAdjust="spacing" textLength="14" x="683.5" y="263.292">to</text><text fill="#000000" font-family="sans-serif" font-size="14" lengthAdjust="spacing" textLength="4" x="697.5" y="263.292">&#160;</text><text fill="#000000" font-family="sans-serif" font-size="14" lengthAdjust="spacing" textLength="54" x="701.5" y="263.292">perform</text><text fill="#000000" font-family="sans-serif" font-size="14" lengthAdjust="spacing" textLength="4" x="755.5" y="263.292">&#160;</text><text fill="#000000" font-family="sans-serif" font-size="14" lengthAdjust="spacing" textLength="23" x="759.5" y="263.292">the</text><text fill="#000000" font-family="sans-serif" font-size="14" lengthAdjust="spacing" textLength="69" x="651.5" y="279.5889">command</text></g><!--entity SomethingElseHappened_Input--><g id="elem_SomethingElseHappened_Input"><path d="M1009,160.5 L1019,160.5 C1024,160.5 1024,165.5 1024,165.5 C1024,165.5 1024,170.5 1019,170.5 L1009,170.5 C1004,170.5 1004,165.5 1004,165.5 C1004,165.5 1004,160.5 1009,160.5 " fill="#000000" style="stroke:#000000;stroke-width:0.5;"/><path d="M1019,160.5 C1014,160.5 1014,165.5 1014,165.5 C1014,170.5 1019,170.5 1019,170.5 " fill="none" style="stroke:#000000;stroke-width:0.5;"/></g><!--entity SomethingElseHappened--><g id="elem_SomethingElseHappened"><path d="M1036.5,117.5 L1036.5,213.9844 A2.5,2.5 0 0 0 1039,216.4844 L1251,216.4844 A2.5,2.5 0 0 0 1253.5,213.9844 L1253.5,125 L1243.5,115 L1039,115 A2.5,2.5 0 0 0 1036.5,117.5 " fill="#FFA500" style="stroke:#181818;stroke-width:0.5;"/><path d="M1243.5,115 L1243.5,122.5 A2.5,2.5 0 0 0 1246,125 L1253.5,125 " fill="#FFA500" style="stroke:#181818;stroke-width:0.5;"/><text fill="#000000" font-family="sans-serif" font-size="14" font-style="italic" lengthAdjust="spacing" textLength="133" x="1078.5" y="137.9951">&#171;IntegrationEvent&#187;</text><text fill="#000000" font-family="sans-serif" font-size="14" lengthAdjust="spacing" textLength="75" x="1046.5" y="154.292">Something</text><text fill="#000000" font-family="sans-serif" font-size="14" lengthAdjust="spacing" textLength="4" x="1121.5" y="154.292">&#160;</text><text fill="#000000" font-family="sans-serif" font-size="14" lengthAdjust="spacing" textLength="27" x="1125.5" y="154.292">that</text><text fill="#000000" font-family="sans-serif" font-size="14" lengthAdjust="spacing" textLength="4" x="1152.5" y="154.292">&#160;</text><text fill="#000000" font-family="sans-serif" font-size="14" lengthAdjust="spacing" textLength="71" x="1156.5" y="154.292">happened</text><text fill="#000000" font-family="sans-serif" font-size="14" lengthAdjust="spacing" textLength="4" x="1227.5" y="154.292">&#160;</text><text fill="#000000" font-family="sans-serif" font-size="14" lengthAdjust="spacing" textLength="12" x="1231.5" y="154.292">in</text><text fill="#000000" font-family="sans-serif" font-size="14" lengthAdjust="spacing" textLength="8" x="1069.5" y="170.5889">a</text><text fill="#000000" font-family="sans-serif" font-size="14" lengthAdjust="spacing" textLength="4" x="1077.5" y="170.5889">&#160;</text><text fill="#000000" font-family="sans-serif" font-size="14" lengthAdjust="spacing" textLength="77" x="1081.5" y="170.5889">subdomain</text><text fill="#000000" font-family="sans-serif" font-size="14" lengthAdjust="spacing" textLength="4" x="1158.5" y="170.5889">&#160;</text><text fill="#000000" font-family="sans-serif" font-size="14" lengthAdjust="spacing" textLength="26" x="1162.5" y="170.5889">and</text><text fill="#000000" font-family="sans-serif" font-size="14" lengthAdjust="spacing" textLength="4" x="1188.5" y="170.5889">&#160;</text><text fill="#000000" font-family="sans-serif" font-size="14" lengthAdjust="spacing" textLength="11" x="1192.5" y="170.5889">is</text><text fill="#000000" font-family="sans-serif" font-size="14" lengthAdjust="spacing" textLength="4" x="1203.5" y="170.5889">&#160;</text><text fill="#000000" font-family="sans-serif" font-size="14" lengthAdjust="spacing" textLength="13" x="1207.5" y="170.5889">of</text><text fill="#000000" font-family="sans-serif" font-size="14" lengthAdjust="spacing" textLength="53" x="1087" y="186.8857">interest</text><text fill="#000000" font-family="sans-serif" font-size="14" lengthAdjust="spacing" textLength="4" x="1140" y="186.8857">&#160;</text><text fill="#000000" font-family="sans-serif" font-size="14" lengthAdjust="spacing" textLength="18" x="1144" y="186.8857">for</text><text fill="#000000" font-family="sans-serif" font-size="14" lengthAdjust="spacing" textLength="4" x="1162" y="186.8857">&#160;</text><text fill="#000000" font-family="sans-serif" font-size="14" lengthAdjust="spacing" textLength="37" x="1166" y="186.8857">other</text><text fill="#000000" font-family="sans-serif" font-size="14" lengthAdjust="spacing" textLength="85" x="1102.5" y="203.1826">subdomains</text></g><!--entity ABlocker--><g id="elem_ABlocker"><path d="M1011,16.5 L1011,96.6875 A2.5,2.5 0 0 0 1013.5,99.1875 L1214.5,99.1875 A2.5,2.5 0 0 0 1217,96.6875 L1217,24 L1207,14 L1013.5,14 A2.5,2.5 0 0 0 1011,16.5 " fill="#E300B7" style="stroke:#181818;stroke-width:0.5;"/><path d="M1207,14 L1207,21.5 A2.5,2.5 0 0 0 1209.5,24 L1217,24 " fill="#E300B7" style="stroke:#181818;stroke-width:0.5;"/><text fill="#000000" font-family="sans-serif" font-size="14" font-style="italic" lengthAdjust="spacing" textLength="70" x="1079" y="36.9951">&#171;Blocker&#187;</text><text fill="#000000" font-family="sans-serif" font-size="14" lengthAdjust="spacing" textLength="9" x="1027.5" y="53.292">A</text><text fill="#000000" font-family="sans-serif" font-size="14" lengthAdjust="spacing" textLength="4" x="1036.5" y="53.292">&#160;</text><text fill="#000000" font-family="sans-serif" font-size="14" lengthAdjust="spacing" textLength="28" x="1040.5" y="53.292">risk,</text><text fill="#000000" font-family="sans-serif" font-size="14" lengthAdjust="spacing" textLength="4" x="1068.5" y="53.292">&#160;</text><text fill="#000000" font-family="sans-serif" font-size="14" lengthAdjust="spacing" textLength="61" x="1072.5" y="53.292">incorrect</text><text fill="#000000" font-family="sans-serif" font-size="14" lengthAdjust="spacing" textLength="4" x="1133.5" y="53.292">&#160;</text><text fill="#000000" font-family="sans-serif" font-size="14" lengthAdjust="spacing" textLength="63" x="1137.5" y="53.292">behavior,</text><text fill="#000000" font-family="sans-serif" font-size="14" lengthAdjust="spacing" textLength="74" x="1021" y="69.5889">something</text><text fill="#000000" font-family="sans-serif" font-size="14" lengthAdjust="spacing" textLength="4" x="1095" y="69.5889">&#160;</text><text fill="#000000" font-family="sans-serif" font-size="14" lengthAdjust="spacing" textLength="27" x="1099" y="69.5889">that</text><text fill="#000000" font-family="sans-serif" font-size="14" lengthAdjust="spacing" textLength="4" x="1126" y="69.5889">&#160;</text><text fill="#000000" font-family="sans-serif" font-size="14" lengthAdjust="spacing" textLength="50" x="1130" y="69.5889">annoys</text><text fill="#000000" font-family="sans-serif" font-size="14" lengthAdjust="spacing" textLength="4" x="1180" y="69.5889">&#160;</text><text fill="#000000" font-family="sans-serif" font-size="14" lengthAdjust="spacing" textLength="23" x="1184" y="69.5889">the</text><text fill="#000000" font-family="sans-serif" font-size="14" lengthAdjust="spacing" textLength="31" x="1098.5" y="85.8857">user</text></g><!--entity AnOpportunity--><g id="elem_AnOpportunity"><path d="M595.5,24.5 L595.5,88.3906 A2.5,2.5 0 0 0 598,90.8906 L764,90.8906 A2.5,2.5 0 0 0 766.5,88.3906 L766.5,32 L756.5,22 L598,22 A2.5,2.5 0 0 0 595.5,24.5 " fill="#ADFF2F" style="stroke:#181818;stroke-width:0.5;"/><path d="M756.5,22 L756.5,29.5 A2.5,2.5 0 0 0 759,32 L766.5,32 " fill="#ADFF2F" style="stroke:#181818;stroke-width:0.5;"/><text fill="#000000" font-family="sans-serif" font-size="14" font-style="italic" lengthAdjust="spacing" textLength="100" x="631" y="44.9951">&#171;Opportunity&#187;</text><text fill="#000000" font-family="sans-serif" font-size="14" lengthAdjust="spacing" textLength="81" x="605.5" y="61.292">Opportunity</text><text fill="#000000" font-family="sans-serif" font-size="14" lengthAdjust="spacing" textLength="4" x="686.5" y="61.292">&#160;</text><text fill="#000000" font-family="sans-serif" font-size="14" lengthAdjust="spacing" textLength="14" x="690.5" y="61.292">to</text><text fill="#000000" font-family="sans-serif" font-size="14" lengthAdjust="spacing" textLength="4" x="704.5" y="61.292">&#160;</text><text fill="#000000" font-family="sans-serif" font-size="14" lengthAdjust="spacing" textLength="36" x="708.5" y="61.292">solve</text><text fill="#000000" font-family="sans-serif" font-size="14" lengthAdjust="spacing" textLength="4" x="744.5" y="61.292">&#160;</text><text fill="#000000" font-family="sans-serif" font-size="14" lengthAdjust="spacing" textLength="8" x="748.5" y="61.292">a</text><text fill="#000000" font-family="sans-serif" font-size="14" lengthAdjust="spacing" textLength="51" x="655.5" y="77.5889">blocker</text></g><!--link SomethingHappened_Aggregate to SomethingHappened--><g id="link_SomethingHappened_Aggregate_SomethingHappened"><path d="M892,107.17 C892,115.18 892,123.29 892,130.82 " fill="none" id="SomethingHappened_Aggregate-SomethingHappened" style="stroke:#181818;stroke-width:1.0;"/></g><!--link SomethingHappened_System to SomethingHappened--><g id="link_SomethingHappened_System_SomethingHappened"><path d="M779.7,177 C783.78,177 787.87,177 791.95,177 " fill="none" id="SomethingHappened_System-SomethingHappened" style="stroke:#181818;stroke-width:1.0;"/></g><!--link SomethingHappened_Command to SomethingHappened_System--><g id="link_SomethingHappened_Command_SomethingHappened_System"><path d="M570.21,166 C574.28,166 578.37,166 582.46,166 " fill="none" id="SomethingHappened_Command-SomethingHappened_System" style="stroke:#181818;stroke-width:1.0;"/></g><!--link SomethingHappened_Policy to SomethingHappened_Command--><g id="link_SomethingHappened_Policy_SomethingHappened_Command"><path d="M121,208.17 C121,215.07 121,220 121,220 C121,220 450,220 450,220 C450,220 450,205.95 450,192.11 " fill="none" id="SomethingHappened_Policy-SomethingHappened_Command" style="stroke:#181818;stroke-width:1.0;"/></g><!--link SomethingHappened_User to SomethingHappened_Command--><g id="link_SomethingHappened_User_SomethingHappened_Command"><path d="M378.07,166 C381.99,166 385.93,166 389.87,166 " fill="none" id="SomethingHappened_User-SomethingHappened_Command" style="stroke:#181818;stroke-width:1.0;"/></g><!--link SomethingHappened_Input to SomethingHappened_User--><!--link SomethingHappened_User to SomethingHappened_Policy--><!--link SomethingHappened_Policy to SomethingHappened_User--><!--link SomethingHappened_Policy to SomethingHappened_User--><!--link SomethingHappened_User to SomethingHappened_Policy--><!--link SomethingHappened to SomethingHappened_ReadModel--><!--link SomethingHappened_Command to SomethingHappened_ReadModel--><!--link SomethingHappened_Input to SomethingHappened_Policy--><g id="link_SomethingHappened_Input_SomethingHappened_Policy"><path d="M26.07,166 C29.35,166 33.3,166 37.69,166 " fill="none" id="SomethingHappened_Input-SomethingHappened_Policy" style="stroke:#181818;stroke-width:1.0;"/></g><!--link SomethingElseHappened_Input to SomethingElseHappened--><g id="link_SomethingElseHappened_Input_SomethingElseHappened"><path d="M1024.28,166 C1027.66,166 1031.74,166 1036.33,166 " fill="none" id="SomethingElseHappened_Input-SomethingElseHappened" style="stroke:#181818;stroke-width:1.0;"/></g><!--link AnOpportunity to SomethingHappened_System--><g id="link_AnOpportunity_SomethingHappened_System"><path d="M681,91.29 C681,101.26 681,112.24 681,122.64 " fill="none" id="AnOpportunity-SomethingHappened_System" style="stroke:#181818;stroke-width:1.0;"/></g><!--link ABlocker to SomethingHappened--><g id="link_ABlocker_SomethingHappened"><path d="M1017.5,99.15 C1017.5,122.2 1017.5,146 1017.5,146 C1017.5,146 1007.01,146 992.1,146 " fill="none" id="ABlocker-SomethingHappened" style="stroke:#181818;stroke-width:1.0;"/></g><!--link SomethingHappened to SomethingElseHappened_Input--><g id="link_SomethingHappened_SomethingElseHappened_Input"><path d="M992.19,166 C996.64,166 1000.61,166 1003.9,166 " fill="none" id="SomethingHappened-SomethingElseHappened_Input" style="stroke:#181818;stroke-width:1.0;"/></g><!--SRC=[VL9DRzim3BthLt3003j0OjztozO0pM5OiMpdGfOPMwWj6IITBlz-jEoqBbhqAEfza7pyueFhnXf7wg0L6VXRMP9zBXelxLYDZEHY40nIkDYNDQ7jsOVA2vTuqVAE9LBlGxCRnhuh2SzSjcXhBdlhGydaoiE4EosmmYlCcBiuVQUVFDi3YnK4rzhG84Xh1Lex31Ym1X_00ezLdHZP5awnHsbLwdw1RE7hZzZtDjHvTWnUl6hnH5g9PXj5xPk6iD5Ydjt7hdx5A5KD6IfixSL7OZX7cfdg0ruAE0OjzKgfuYXlf1aktiBS7gITS97i7cBdtLMzL5cYYWDE8aw7UcwryGiIy6sOPM1EpDEL1ViyUq1QNC7D4m8MJG67Vu8KR0VxKLH9lBFYOu2PboJ-Qd9vzeTyqo2j1DBdRmtePwonoxCxAnO2OgrTQPF3xAWPu2jZOuvw0WqbaoMpbnG-ZIjjrZF4itvepyYILXjLdrvXl8xrq37UejsOxrrqJzCeUo3FJrlLSP48dRoajLrjCJLZGuXNJZDC1wpY-qLcOtuDGoGPzKmqcTLZ6fvZTz5ZW6e6JxomWcoCUVE6tUxzCJxE6PYRuuSWOzwLOFVn1XwFOHZ5_0S0]--></g></svg>