<?xml version="1.0" encoding="us-ascii" standalone="no"?><svg xmlns="http://www.w3.org/2000/svg" xmlns:xlink="http://www.w3.org/1999/xlink" contentStyleType="text/css" height="159px" preserveAspectRatio="none" style="width:857px;height:159px;background:#FFFFFF;" version="1.1" viewBox="0 0 857 159" width="857px" zoomAndPan="magnify"><defs/><g><!--entity SomethingHappened_Input--><g id="elem_SomethingHappened_Input"><path d="M108.5,121.5 L118.5,121.5 C123.5,121.5 123.5,126.5 123.5,126.5 C123.5,126.5 123.5,131.5 118.5,131.5 L108.5,131.5 C103.5,131.5 103.5,126.5 103.5,126.5 C103.5,126.5 103.5,121.5 108.5,121.5 " fill="#000000" style="stroke:#000000;stroke-width:0.5;"/><path d="M118.5,121.5 C113.5,121.5 113.5,126.5 113.5,126.5 C113.5,131.5 118.5,131.5 118.5,131.5 " fill="none" style="stroke:#000000;stroke-width:0.5;"/></g><!--entity SomethingHappened--><g id="elem_SomethingHappened"><path d="M138.5,102.5 L138.5,150.0938 A2.5,2.5 0 0 0 141,152.5938 L306,152.5938 A2.5,2.5 0 0 0 308.5,150.0938 L308.5,110 L298.5,100 L141,100 A2.5,2.5 0 0 0 138.5,102.5 " fill="#FF8B00" style="stroke:#181818;stroke-width:0.5;"/><path d="M298.5,100 L298.5,107.5 A2.5,2.5 0 0 0 301,110 L308.5,110 " fill="#FF8B00" style="stroke:#181818;stroke-width:0.5;"/><text fill="#000000" font-family="sans-serif" font-size="14" font-style="italic" lengthAdjust="spacing" textLength="111" x="168" y="122.9951">&#171;DomainEvent&#187;</text><text fill="#000000" font-family="sans-serif" font-size="14" lengthAdjust="spacing" textLength="75" x="148.5" y="139.292">Something</text><text fill="#000000" font-family="sans-serif" font-size="14" lengthAdjust="spacing" textLength="4" x="223.5" y="139.292">&#160;</text><text fill="#000000" font-family="sans-serif" font-size="14" lengthAdjust="spacing" textLength="71" x="227.5" y="139.292">happened</text></g><!--entity SomethingElseHappened_Input--><g id="elem_SomethingElseHappened_Input"><path d="M326.5,121.5 L336.5,121.5 C341.5,121.5 341.5,126.5 341.5,126.5 C341.5,126.5 341.5,131.5 336.5,131.5 L326.5,131.5 C321.5,131.5 321.5,126.5 321.5,126.5 C321.5,126.5 321.5,121.5 326.5,121.5 " fill="#000000" style="stroke:#000000;stroke-width:0.5;"/><path d="M336.5,121.5 C331.5,121.5 331.5,126.5 331.5,126.5 C331.5,131.5 336.5,131.5 336.5,131.5 " fill="none" style="stroke:#000000;stroke-width:0.5;"/></g><!--entity SomethingElseHappened--><g id="elem_SomethingElseHappened"><path d="M647,102.5 L647,150.0938 A2.5,2.5 0 0 0 649.5,152.5938 L847.5,152.5938 A2.5,2.5 0 0 0 850,150.0938 L850,110 L840,100 L649.5,100 A2.5,2.5 0 0 0 647,102.5 " fill="#FF8B00" style="stroke:#181818;stroke-width:0.5;"/><path d="M840,100 L840,107.5 A2.5,2.5 0 0 0 842.5,110 L850,110 " fill="#FF8B00" style="stroke:#181818;stroke-width:0.5;"/><text fill="#000000" font-family="sans-serif" font-size="14" font-style="italic" lengthAdjust="spacing" textLength="111" x="693" y="122.9951">&#171;DomainEvent&#187;</text><text fill="#000000" font-family="sans-serif" font-size="14" lengthAdjust="spacing" textLength="75" x="657" y="139.292">Something</text><text fill="#000000" font-family="sans-serif" font-size="14" lengthAdjust="spacing" textLength="4" x="732" y="139.292">&#160;</text><text fill="#000000" font-family="sans-serif" font-size="14" lengthAdjust="spacing" textLength="29" x="736" y="139.292">else</text><text fill="#000000" font-family="sans-serif" font-size="14" lengthAdjust="spacing" textLength="4" x="765" y="139.292">&#160;</text><text fill="#000000" font-family="sans-serif" font-size="14" lengthAdjust="spacing" textLength="71" x="769" y="139.292">happened</text></g><!--entity SomethingElseHappened_Command--><g id="elem_SomethingElseHappened_Command"><path d="M484,102.5 L484,150.0938 A2.5,2.5 0 0 0 486.5,152.5938 L632.5,152.5938 A2.5,2.5 0 0 0 635,150.0938 L635,110 L625,100 L486.5,100 A2.5,2.5 0 0 0 484,102.5 " fill="#25ABFD" style="stroke:#181818;stroke-width:0.5;"/><path d="M625,100 L625,107.5 A2.5,2.5 0 0 0 627.5,110 L635,110 " fill="#25ABFD" style="stroke:#181818;stroke-width:0.5;"/><text fill="#000000" font-family="sans-serif" font-size="14" font-style="italic" lengthAdjust="spacing" textLength="89" x="515" y="122.9951">&#171;Command&#187;</text><text fill="#000000" font-family="sans-serif" font-size="14" lengthAdjust="spacing" textLength="20" x="494" y="139.292">Do</text><text fill="#000000" font-family="sans-serif" font-size="14" lengthAdjust="spacing" textLength="4" x="514" y="139.292">&#160;</text><text fill="#000000" font-family="sans-serif" font-size="14" lengthAdjust="spacing" textLength="74" x="518" y="139.292">something</text><text fill="#000000" font-family="sans-serif" font-size="14" lengthAdjust="spacing" textLength="4" x="592" y="139.292">&#160;</text><text fill="#000000" font-family="sans-serif" font-size="14" lengthAdjust="spacing" textLength="29" x="596" y="139.292">else</text></g><!--entity SomethingElseHappened_Policy--><g id="elem_SomethingElseHappened_Policy"><path d="M353.5,102.5 L353.5,150.0938 A2.5,2.5 0 0 0 356,152.5938 L469,152.5938 A2.5,2.5 0 0 0 471.5,150.0938 L471.5,110 L461.5,100 L356,100 A2.5,2.5 0 0 0 353.5,102.5 " fill="#E9BEFF" style="stroke:#181818;stroke-width:0.5;"/><path d="M461.5,100 L461.5,107.5 A2.5,2.5 0 0 0 464,110 L471.5,110 " fill="#E9BEFF" style="stroke:#181818;stroke-width:0.5;"/><text fill="#000000" font-family="sans-serif" font-size="14" font-style="italic" lengthAdjust="spacing" textLength="57" x="384" y="122.9951">&#171;Policy&#187;</text><text fill="#000000" font-family="sans-serif" font-size="14" lengthAdjust="spacing" textLength="55" x="363.5" y="139.292">Another</text><text fill="#000000" font-family="sans-serif" font-size="14" lengthAdjust="spacing" textLength="4" x="418.5" y="139.292">&#160;</text><text fill="#000000" font-family="sans-serif" font-size="14" lengthAdjust="spacing" textLength="39" x="422.5" y="139.292">policy</text></g><g id="elem_InputNote"><path d="M6,29 L6,69.2656 A0,0 0 0 0 6,69.2656 L109.5,69.2656 L113.5,121.45 L117.5,69.2656 L211,69.2656 A0,0 0 0 0 211,69.2656 L211,39 L201,29 L6,29 A0,0 0 0 0 6,29 " fill="#FEFFDD" style="stroke:#181818;stroke-width:0.5;"/><path d="M201,29 L201,39 L211,39 L201,29 " fill="#FEFFDD" style="stroke:#181818;stroke-width:0.5;"/><text fill="#000000" font-family="sans-serif" font-size="13" lengthAdjust="spacing" textLength="25" x="12" y="46.0669">This</text><text fill="#000000" font-family="sans-serif" font-size="13" lengthAdjust="spacing" textLength="4" x="37" y="46.0669">&#160;</text><text fill="#000000" font-family="sans-serif" font-size="13" lengthAdjust="spacing" textLength="39" x="41" y="46.0669">shows</text><text fill="#000000" font-family="sans-serif" font-size="13" lengthAdjust="spacing" textLength="4" x="80" y="46.0669">&#160;</text><text fill="#000000" font-family="sans-serif" font-size="13" lengthAdjust="spacing" textLength="21" x="84" y="46.0669">the</text><text fill="#000000" font-family="sans-serif" font-size="13" lengthAdjust="spacing" textLength="4" x="105" y="46.0669">&#160;</text><text fill="#000000" font-family="sans-serif" font-size="13" lengthAdjust="spacing" textLength="30" x="109" y="46.0669">start</text><text fill="#000000" font-family="sans-serif" font-size="13" lengthAdjust="spacing" textLength="4" x="139" y="46.0669">&#160;</text><text fill="#000000" font-family="sans-serif" font-size="13" lengthAdjust="spacing" textLength="12" x="143" y="46.0669">of</text><text fill="#000000" font-family="sans-serif" font-size="13" lengthAdjust="spacing" textLength="4" x="155" y="46.0669">&#160;</text><text fill="#000000" font-family="sans-serif" font-size="13" lengthAdjust="spacing" textLength="8" x="159" y="46.0669">a</text><text fill="#000000" font-family="sans-serif" font-size="13" lengthAdjust="spacing" textLength="4" x="167" y="46.0669">&#160;</text><text fill="#000000" font-family="sans-serif" font-size="13" lengthAdjust="spacing" textLength="25" x="171" y="46.0669">new</text><text fill="#000000" font-family="sans-serif" font-size="13" lengthAdjust="spacing" textLength="36" x="42" y="61.1997">event</text><text fill="#000000" font-family="sans-serif" font-size="13" lengthAdjust="spacing" textLength="4" x="78" y="61.1997">&#160;</text><text fill="#000000" font-family="sans-serif" font-size="13" lengthAdjust="spacing" textLength="47" x="82" y="61.1997">stickies</text><text fill="#000000" font-family="sans-serif" font-size="13" lengthAdjust="spacing" textLength="4" x="129" y="61.1997">&#160;</text><text fill="#000000" font-family="sans-serif" font-size="13" lengthAdjust="spacing" textLength="33" x="133" y="61.1997">block</text></g><g id="elem_ChainNote"><path d="M222.5,6 L222.5,91.6641 A0,0 0 0 0 222.5,91.6641 L327.5,91.6641 L331.5,121.28 L335.5,91.6641 L444.5,91.6641 A0,0 0 0 0 444.5,91.6641 L444.5,16 L434.5,6 L222.5,6 A0,0 0 0 0 222.5,6 " fill="#FEFFDD" style="stroke:#181818;stroke-width:0.5;"/><path d="M434.5,6 L434.5,16 L444.5,16 L434.5,6 " fill="#FEFFDD" style="stroke:#181818;stroke-width:0.5;"/><text fill="#000000" font-family="sans-serif" font-size="13" lengthAdjust="spacing" textLength="23" x="246.5" y="23.0669">You</text><text fill="#000000" font-family="sans-serif" font-size="13" lengthAdjust="spacing" textLength="4" x="269.5" y="23.0669">&#160;</text><text fill="#000000" font-family="sans-serif" font-size="13" lengthAdjust="spacing" textLength="23" x="273.5" y="23.0669">can</text><text fill="#000000" font-family="sans-serif" font-size="13" lengthAdjust="spacing" textLength="4" x="296.5" y="23.0669">&#160;</text><text fill="#000000" font-family="sans-serif" font-size="13" lengthAdjust="spacing" textLength="34" x="300.5" y="23.0669">chain</text><text fill="#000000" font-family="sans-serif" font-size="13" lengthAdjust="spacing" textLength="4" x="334.5" y="23.0669">&#160;</text><text fill="#000000" font-family="sans-serif" font-size="13" lengthAdjust="spacing" textLength="24" x="338.5" y="23.0669">and</text><text fill="#000000" font-family="sans-serif" font-size="13" lengthAdjust="spacing" textLength="4" x="362.5" y="23.0669">&#160;</text><text fill="#000000" font-family="sans-serif" font-size="13" lengthAdjust="spacing" textLength="20" x="366.5" y="23.0669">set</text><text fill="#000000" font-family="sans-serif" font-size="13" lengthAdjust="spacing" textLength="4" x="386.5" y="23.0669">&#160;</text><text fill="#000000" font-family="sans-serif" font-size="13" lengthAdjust="spacing" textLength="21" x="390.5" y="23.0669">the</text><text fill="#000000" font-family="sans-serif" font-size="13" lengthAdjust="spacing" textLength="34" x="232.5" y="38.1997">order</text><text fill="#000000" font-family="sans-serif" font-size="13" lengthAdjust="spacing" textLength="4" x="266.5" y="38.1997">&#160;</text><text fill="#000000" font-family="sans-serif" font-size="13" lengthAdjust="spacing" textLength="12" x="270.5" y="38.1997">of</text><text fill="#000000" font-family="sans-serif" font-size="13" lengthAdjust="spacing" textLength="4" x="282.5" y="38.1997">&#160;</text><text fill="#000000" font-family="sans-serif" font-size="13" lengthAdjust="spacing" textLength="36" x="286.5" y="38.1997">event</text><text fill="#000000" font-family="sans-serif" font-size="13" lengthAdjust="spacing" textLength="4" x="322.5" y="38.1997">&#160;</text><text fill="#000000" font-family="sans-serif" font-size="13" lengthAdjust="spacing" textLength="36" x="326.5" y="38.1997">sticky</text><text fill="#000000" font-family="sans-serif" font-size="13" lengthAdjust="spacing" textLength="4" x="362.5" y="38.1997">&#160;</text><text fill="#000000" font-family="sans-serif" font-size="13" lengthAdjust="spacing" textLength="40" x="366.5" y="38.1997">blocks</text><text fill="#000000" font-family="sans-serif" font-size="13" lengthAdjust="spacing" textLength="4" x="406.5" y="38.1997">&#160;</text><text fill="#000000" font-family="sans-serif" font-size="13" lengthAdjust="spacing" textLength="15" x="410.5" y="38.1997">by</text><text fill="#000000" font-family="sans-serif" font-size="13" lengthAdjust="spacing" textLength="72" x="234" y="53.3325">referencing</text><text fill="#000000" font-family="sans-serif" font-size="13" lengthAdjust="spacing" textLength="4" x="306" y="53.3325">&#160;</text><text fill="#000000" font-family="sans-serif" font-size="13" lengthAdjust="spacing" textLength="114" x="310" y="53.3325">EventName_Input</text><text fill="#000000" font-family="sans-serif" font-size="13" lengthAdjust="spacing" textLength="24" x="317" y="68.4653">e.g.</text><text fill="#000000" font-family="sans-serif" font-size="13" lengthAdjust="spacing" textLength="201" x="228.5" y="83.5981">SomethingElseHappened_Input</text></g><!--link SomethingHappened_Input to SomethingHappened--><g id="link_SomethingHappened_Input_SomethingHappened"><path d="M123.65,127 C127.69,127 132.74,127 138.39,127 " fill="none" id="SomethingHappened_Input-SomethingHappened" style="stroke:#181818;stroke-width:1.0;"/></g><!--link SomethingElseHappened_Command to SomethingElseHappened--><g id="link_SomethingElseHappened_Command_SomethingElseHappened"><path d="M635.01,127 C638.92,127 642.87,127 646.84,127 " fill="none" id="SomethingElseHappened_Command-SomethingElseHappened" style="stroke:#181818;stroke-width:1.0;"/></g><!--link SomethingElseHappened_Policy to SomethingElseHappened_Command--><g id="link_SomethingElseHappened_Policy_SomethingElseHappened_Command"><path d="M471.87,127 C475.85,127 479.89,127 483.94,127 " fill="none" id="SomethingElseHappened_Policy-SomethingElseHappened_Command" style="stroke:#181818;stroke-width:1.0;"/></g><!--link SomethingElseHappened_Input to SomethingElseHappened_Policy--><g id="link_SomethingElseHappened_Input_SomethingElseHappened_Policy"><path d="M341.76,127 C345.08,127 349.03,127 353.34,127 " fill="none" id="SomethingElseHappened_Input-SomethingElseHappened_Policy" style="stroke:#181818;stroke-width:1.0;"/></g><!--link SomethingHappened to SomethingElseHappened_Input--><g id="link_SomethingHappened_SomethingElseHappened_Input"><path d="M308.6,127 C313.41,127 317.72,127 321.27,127 " fill="none" id="SomethingHappened-SomethingElseHappened_Input" style="stroke:#181818;stroke-width:1.0;"/></g><!--SRC=[VP71QiCm44Jl_effA3Y6sFc6aWJQIoYabvwAAcyY4KioajpWl-zQSKr3t1wrE_DsTlMWhMowcb1Lw-3bUlT5DXwYyqRRKwKxqsJPrXcXRUeiyuCp51KteKJRagKwNs4gFe-ruayNDO5chJjk_DXNUDmuOuIjb_dM8TouyuBRhwxHib_cJzP5HHvjUkS53-OAOV6cT41GxXB00eGeV8GxGi3I1JJ4ugAMPqq1dusJvmL4m8jjkxXdmeXvTnsai92Abm47Gg2OYCxNF9U9lrZzbSJ07fwEvCdA8NQwmbuO-aXyK7MgvZU_2bAKpJ0oHSdkxeloFtkMJMkWBEz_PrHD0sv4CxXl]--></g></svg>