<?xml version="1.0" encoding="us-ascii" standalone="no"?><svg xmlns="http://www.w3.org/2000/svg" xmlns:xlink="http://www.w3.org/1999/xlink" contentStyleType="text/css" height="177px" preserveAspectRatio="none" style="width:593px;height:177px;background:#FFFFFF;" version="1.1" viewBox="0 0 593 177" width="593px" zoomAndPan="magnify"><defs/><g><!--entity SomethingHappened_Input--><g id="elem_SomethingHappened_Input"><path d="M42.5,90.5 L52.5,90.5 C57.5,90.5 57.5,95.5 57.5,95.5 C57.5,95.5 57.5,100.5 52.5,100.5 L42.5,100.5 C37.5,100.5 37.5,95.5 37.5,95.5 C37.5,95.5 37.5,90.5 42.5,90.5 " fill="#000000" style="stroke:#000000;stroke-width:0.5;"/><path d="M52.5,90.5 C47.5,90.5 47.5,95.5 47.5,95.5 C47.5,100.5 52.5,100.5 52.5,100.5 " fill="none" style="stroke:#000000;stroke-width:0.5;"/></g><!--entity SomethingHappened--><g id="elem_SomethingHappened"><path d="M213.5,71.5 L213.5,119.0938 A2.5,2.5 0 0 0 216,121.5938 L381,121.5938 A2.5,2.5 0 0 0 383.5,119.0938 L383.5,79 L373.5,69 L216,69 A2.5,2.5 0 0 0 213.5,71.5 " fill="#FF8B00" style="stroke:#181818;stroke-width:0.5;"/><path d="M373.5,69 L373.5,76.5 A2.5,2.5 0 0 0 376,79 L383.5,79 " fill="#FF8B00" style="stroke:#181818;stroke-width:0.5;"/><text fill="#000000" font-family="sans-serif" font-size="14" font-style="italic" lengthAdjust="spacing" textLength="111" x="243" y="91.9951">&#171;DomainEvent&#187;</text><text fill="#000000" font-family="sans-serif" font-size="14" lengthAdjust="spacing" textLength="75" x="223.5" y="108.292">Something</text><text fill="#000000" font-family="sans-serif" font-size="14" lengthAdjust="spacing" textLength="4" x="298.5" y="108.292">&#160;</text><text fill="#000000" font-family="sans-serif" font-size="14" lengthAdjust="spacing" textLength="71" x="302.5" y="108.292">happened</text></g><!--entity AnAggregate--><g id="elem_AnAggregate"><path d="M249,9.5 L249,57.0938 A2.5,2.5 0 0 0 251.5,59.5938 L359.5,59.5938 A2.5,2.5 0 0 0 362,57.0938 L362,17 L352,7 L251.5,7 A2.5,2.5 0 0 0 249,9.5 " fill="#FFEE88" style="stroke:#181818;stroke-width:0.5;"/><path d="M352,7 L352,14.5 A2.5,2.5 0 0 0 354.5,17 L362,17 " fill="#FFEE88" style="stroke:#181818;stroke-width:0.5;"/><text fill="#000000" font-family="sans-serif" font-size="14" font-style="italic" lengthAdjust="spacing" textLength="91" x="260" y="29.9951">&#171;Aggregate&#187;</text><text fill="#000000" font-family="sans-serif" font-size="14" lengthAdjust="spacing" textLength="18" x="259" y="46.292">An</text><text fill="#000000" font-family="sans-serif" font-size="14" lengthAdjust="spacing" textLength="4" x="277" y="46.292">&#160;</text><text fill="#000000" font-family="sans-serif" font-size="14" lengthAdjust="spacing" textLength="71" x="281" y="46.292">aggregate</text></g><!--entity SomethingHappened_Command--><g id="elem_SomethingHappened_Command"><path d="M69.5,71.5 L69.5,119.0938 A2.5,2.5 0 0 0 72,121.5938 L185,121.5938 A2.5,2.5 0 0 0 187.5,119.0938 L187.5,79 L177.5,69 L72,69 A2.5,2.5 0 0 0 69.5,71.5 " fill="#25ABFD" style="stroke:#181818;stroke-width:0.5;"/><path d="M177.5,69 L177.5,76.5 A2.5,2.5 0 0 0 180,79 L187.5,79 " fill="#25ABFD" style="stroke:#181818;stroke-width:0.5;"/><text fill="#000000" font-family="sans-serif" font-size="14" font-style="italic" lengthAdjust="spacing" textLength="89" x="84" y="91.9951">&#171;Command&#187;</text><text fill="#000000" font-family="sans-serif" font-size="14" lengthAdjust="spacing" textLength="20" x="79.5" y="108.292">Do</text><text fill="#000000" font-family="sans-serif" font-size="14" lengthAdjust="spacing" textLength="4" x="99.5" y="108.292">&#160;</text><text fill="#000000" font-family="sans-serif" font-size="14" lengthAdjust="spacing" textLength="74" x="103.5" y="108.292">something</text></g><g id="elem_CommandNote"><path d="M6,6 L6,61.3984 A0,0 0 0 0 6,61.3984 L124.5,61.3984 L128.5,68.99 L132.5,61.3984 L237,61.3984 A0,0 0 0 0 237,61.3984 L237,16 L227,6 L6,6 A0,0 0 0 0 6,6 " fill="#FF6347" style="stroke:#181818;stroke-width:0.5;"/><path d="M227,6 L227,16 L237,16 L227,6 " fill="#FF6347" style="stroke:#181818;stroke-width:0.5;"/><text fill="#000000" font-family="sans-serif" font-size="13" lengthAdjust="spacing" textLength="23" x="24.5" y="23.0669">You</text><text fill="#000000" font-family="sans-serif" font-size="13" lengthAdjust="spacing" textLength="4" x="47.5" y="23.0669">&#160;</text><text fill="#000000" font-family="sans-serif" font-size="13" lengthAdjust="spacing" textLength="23" x="51.5" y="23.0669">can</text><text fill="#000000" font-family="sans-serif" font-size="13" lengthAdjust="spacing" textLength="4" x="74.5" y="23.0669">&#160;</text><text fill="#000000" font-family="sans-serif" font-size="13" lengthAdjust="spacing" textLength="61" x="78.5" y="23.0669">reference</text><text fill="#000000" font-family="sans-serif" font-size="13" lengthAdjust="spacing" textLength="4" x="139.5" y="23.0669">&#160;</text><text fill="#000000" font-family="sans-serif" font-size="13" lengthAdjust="spacing" textLength="47" x="143.5" y="23.0669">stickies</text><text fill="#000000" font-family="sans-serif" font-size="13" lengthAdjust="spacing" textLength="4" x="190.5" y="23.0669">&#160;</text><text fill="#000000" font-family="sans-serif" font-size="13" lengthAdjust="spacing" textLength="15" x="194.5" y="23.0669">by</text><text fill="#000000" font-family="sans-serif" font-size="13" lengthAdjust="spacing" textLength="122" x="42" y="38.1997">EventId_StickyType</text><text fill="#000000" font-family="sans-serif" font-size="13" lengthAdjust="spacing" textLength="4" x="164" y="38.1997">&#160;</text><text fill="#000000" font-family="sans-serif" font-size="13" lengthAdjust="spacing" textLength="24" x="168" y="38.1997">e.g.</text><text fill="#000000" font-family="sans-serif" font-size="13" lengthAdjust="spacing" textLength="210" x="12" y="53.3325">SomethingHappened_Command</text></g><g id="elem_EventNote"><path d="M205.5,130 L205.5,170.2656 A0,0 0 0 0 205.5,170.2656 L391.5,170.2656 A0,0 0 0 0 391.5,170.2656 L391.5,140 L381.5,130 L302.5,130 L298.5,122.11 L294.5,130 L205.5,130 A0,0 0 0 0 205.5,130 " fill="#FEFFDD" style="stroke:#181818;stroke-width:0.5;"/><path d="M381.5,130 L381.5,140 L391.5,140 L381.5,130 " fill="#FEFFDD" style="stroke:#181818;stroke-width:0.5;"/><text fill="#000000" font-family="sans-serif" font-size="13" lengthAdjust="spacing" textLength="15" x="211.5" y="147.0669">To</text><text fill="#000000" font-family="sans-serif" font-size="13" lengthAdjust="spacing" textLength="4" x="226.5" y="147.0669">&#160;</text><text fill="#000000" font-family="sans-serif" font-size="13" lengthAdjust="spacing" textLength="61" x="230.5" y="147.0669">reference</text><text fill="#000000" font-family="sans-serif" font-size="13" lengthAdjust="spacing" textLength="4" x="291.5" y="147.0669">&#160;</text><text fill="#000000" font-family="sans-serif" font-size="13" lengthAdjust="spacing" textLength="21" x="295.5" y="147.0669">the</text><text fill="#000000" font-family="sans-serif" font-size="13" lengthAdjust="spacing" textLength="4" x="316.5" y="147.0669">&#160;</text><text fill="#000000" font-family="sans-serif" font-size="13" lengthAdjust="spacing" textLength="36" x="320.5" y="147.0669">event</text><text fill="#000000" font-family="sans-serif" font-size="13" lengthAdjust="spacing" textLength="4" x="356.5" y="147.0669">&#160;</text><text fill="#000000" font-family="sans-serif" font-size="13" lengthAdjust="spacing" textLength="16" x="360.5" y="147.0669">no</text><text fill="#000000" font-family="sans-serif" font-size="13" lengthAdjust="spacing" textLength="72" x="223" y="162.1997">underscore</text><text fill="#000000" font-family="sans-serif" font-size="13" lengthAdjust="spacing" textLength="4" x="295" y="162.1997">&#160;</text><text fill="#000000" font-family="sans-serif" font-size="13" lengthAdjust="spacing" textLength="10" x="299" y="162.1997">is</text><text fill="#000000" font-family="sans-serif" font-size="13" lengthAdjust="spacing" textLength="4" x="309" y="162.1997">&#160;</text><text fill="#000000" font-family="sans-serif" font-size="13" lengthAdjust="spacing" textLength="52" x="313" y="162.1997">needed.</text></g><g id="elem_AggregateNote"><path d="M374.5,13.5 L374.5,30 L362.32,34 L374.5,38 L374.5,53.7656 A0,0 0 0 0 374.5,53.7656 L586.5,53.7656 A0,0 0 0 0 586.5,53.7656 L586.5,23.5 L576.5,13.5 L374.5,13.5 A0,0 0 0 0 374.5,13.5 " fill="#FEFFDD" style="stroke:#181818;stroke-width:0.5;"/><path d="M576.5,13.5 L576.5,23.5 L586.5,23.5 L576.5,13.5 " fill="#FEFFDD" style="stroke:#181818;stroke-width:0.5;"/><text fill="#000000" font-family="sans-serif" font-size="13" lengthAdjust="spacing" textLength="18" x="380.5" y="30.5669">It's</text><text fill="#000000" font-family="sans-serif" font-size="13" lengthAdjust="spacing" textLength="4" x="398.5" y="30.5669">&#160;</text><text fill="#000000" font-family="sans-serif" font-size="13" lengthAdjust="spacing" textLength="52" x="402.5" y="30.5669">possible</text><text fill="#000000" font-family="sans-serif" font-size="13" lengthAdjust="spacing" textLength="4" x="454.5" y="30.5669">&#160;</text><text fill="#000000" font-family="sans-serif" font-size="13" lengthAdjust="spacing" textLength="13" x="458.5" y="30.5669">to</text><text fill="#000000" font-family="sans-serif" font-size="13" lengthAdjust="spacing" textLength="4" x="471.5" y="30.5669">&#160;</text><text fill="#000000" font-family="sans-serif" font-size="13" lengthAdjust="spacing" textLength="20" x="475.5" y="30.5669">set</text><text fill="#000000" font-family="sans-serif" font-size="13" lengthAdjust="spacing" textLength="4" x="495.5" y="30.5669">&#160;</text><text fill="#000000" font-family="sans-serif" font-size="13" lengthAdjust="spacing" textLength="48" x="499.5" y="30.5669">custom</text><text fill="#000000" font-family="sans-serif" font-size="13" lengthAdjust="spacing" textLength="4" x="547.5" y="30.5669">&#160;</text><text fill="#000000" font-family="sans-serif" font-size="13" lengthAdjust="spacing" textLength="20" x="551.5" y="30.5669">IDs</text><text fill="#000000" font-family="sans-serif" font-size="13" lengthAdjust="spacing" textLength="17" x="426" y="45.6997">for</text><text fill="#000000" font-family="sans-serif" font-size="13" lengthAdjust="spacing" textLength="4" x="443" y="45.6997">&#160;</text><text fill="#000000" font-family="sans-serif" font-size="13" lengthAdjust="spacing" textLength="35" x="447" y="45.6997">every</text><text fill="#000000" font-family="sans-serif" font-size="13" lengthAdjust="spacing" textLength="4" x="482" y="45.6997">&#160;</text><text fill="#000000" font-family="sans-serif" font-size="13" lengthAdjust="spacing" textLength="40" x="486" y="45.6997">sticky.</text></g><!--link AnAggregate to SomethingHappened--><g id="link_AnAggregate_SomethingHappened"><path d="M305.5,60.15 C305.5,63.04 305.5,65.98 305.5,68.87 " fill="none" id="AnAggregate-SomethingHappened" style="stroke:#181818;stroke-width:1.0;"/></g><!--link SomethingHappened_Command to SomethingHappened--><g id="link_SomethingHappened_Command_SomethingHappened"><path d="M187.96,96 C196.19,96 204.78,96 213.37,96 " fill="none" id="SomethingHappened_Command-SomethingHappened" style="stroke:#181818;stroke-width:1.0;"/></g><!--link SomethingHappened_Input to SomethingHappened_Command--><g id="link_SomethingHappened_Input_SomethingHappened_Command"><path d="M57.76,96 C61.08,96 65.03,96 69.34,96 " fill="none" id="SomethingHappened_Input-SomethingHappened_Command" style="stroke:#181818;stroke-width:1.0;"/></g><!--SRC=[TP31ReCm44JlVCKshGH8WNm3AfNAfHUuz1GvzWQiubracqhyVGqX53NgpPwntipuIPFiHuMGvoTdvUdj6ydNdgtHrEPwD7qKbMo4fiL9ufeD-YwOq8bXG48L7s4JtrVj22-lR8mWbSGbWxlxSHgSecqjji9Z4XS4uduBd88sBqsZYDWZ73vv12a8B5xH8aa4vxNyqkZWCi5IgrBdUjQcPXeGC6_pnqhdjT01X8Fr_347F3TXd-SrhU5TaEy2RGu0OXX9eNMIBO9sG8WALRxGbWupQsLKFdOmi7FwqWT8s8yUvEWy6wXA1rUsCzPEjoNJZR9DNqZHlcAM_RydUd3cvx-LTd-Q_Sdu0G00]--></g></svg>