<?xml version="1.0" encoding="us-ascii" standalone="no"?><svg xmlns="http://www.w3.org/2000/svg" xmlns:xlink="http://www.w3.org/1999/xlink" contentStyleType="text/css" height="379px" preserveAspectRatio="none" style="width:762px;height:379px;background:#FFFFFF;" version="1.1" viewBox="0 0 762 379" width="762px" zoomAndPan="magnify"><defs/><g><!--cluster MySubdomain--><g id="cluster_MySubdomain"><rect fill="#ADD8E6" height="366" rx="35" ry="35" style="stroke:#181818;stroke-width:1.0;" width="749" x="7" y="7"/><text fill="#000000" font-family="sans-serif" font-size="14" font-style="italic" lengthAdjust="spacing" textLength="98" x="332.5" y="24.9951">&#171;SubDomain&#187;</text><text fill="#000000" font-family="sans-serif" font-size="14" font-weight="bold" lengthAdjust="spacing" textLength="113" x="325" y="43.292">My subdomain</text></g><!--cluster MyProcess--><g id="cluster_MyProcess"><rect fill="none" height="283" rx="2.5" ry="2.5" style="stroke:#181818;stroke-width:1.0;" width="701" x="31" y="66"/><text fill="#000000" font-family="sans-serif" font-size="14" font-style="italic" lengthAdjust="spacing" textLength="71" x="346" y="80.9951">&#171;Process&#187;</text><text fill="#000000" font-family="sans-serif" font-size="14" font-weight="bold" lengthAdjust="spacing" textLength="91" x="336" y="97.292">My process</text></g><!--entity SomethingHappened_Input--><g id="elem_SomethingHappened_Input"><path d="M52,212 L62,212 C67,212 67,217 67,217 C67,217 67,222 62,222 L52,222 C47,222 47,217 47,217 C47,217 47,212 52,212 " fill="#000000" style="stroke:#000000;stroke-width:0.5;"/><path d="M62,212 C57,212 57,217 57,217 C57,222 62,222 62,222 " fill="none" style="stroke:#000000;stroke-width:0.5;"/></g><!--entity SomethingHappened--><g id="elem_SomethingHappened"><path d="M546,193 L546,240.5938 A2.5,2.5 0 0 0 548.5,243.0938 L713.5,243.0938 A2.5,2.5 0 0 0 716,240.5938 L716,200.5 L706,190.5 L548.5,190.5 A2.5,2.5 0 0 0 546,193 " fill="#FF8B00" style="stroke:#181818;stroke-width:0.5;"/><path d="M706,190.5 L706,198 A2.5,2.5 0 0 0 708.5,200.5 L716,200.5 " fill="#FF8B00" style="stroke:#181818;stroke-width:0.5;"/><text fill="#000000" font-family="sans-serif" font-size="14" font-style="italic" lengthAdjust="spacing" textLength="111" x="575.5" y="213.4951">&#171;DomainEvent&#187;</text><text fill="#000000" font-family="sans-serif" font-size="14" lengthAdjust="spacing" textLength="75" x="556" y="229.792">Something</text><text fill="#000000" font-family="sans-serif" font-size="14" lengthAdjust="spacing" textLength="4" x="631" y="229.792">&#160;</text><text fill="#000000" font-family="sans-serif" font-size="14" lengthAdjust="spacing" textLength="71" x="635" y="229.792">happened</text></g><!--entity SomethingHappened_Aggregate--><g id="elem_SomethingHappened_Aggregate"><path d="M602.5,119.5 L602.5,167.0938 A2.5,2.5 0 0 0 605,169.5938 L713,169.5938 A2.5,2.5 0 0 0 715.5,167.0938 L715.5,127 L705.5,117 L605,117 A2.5,2.5 0 0 0 602.5,119.5 " fill="#FFEE88" style="stroke:#181818;stroke-width:0.5;"/><path d="M705.5,117 L705.5,124.5 A2.5,2.5 0 0 0 708,127 L715.5,127 " fill="#FFEE88" style="stroke:#181818;stroke-width:0.5;"/><text fill="#000000" font-family="sans-serif" font-size="14" font-style="italic" lengthAdjust="spacing" textLength="91" x="613.5" y="139.9951">&#171;Aggregate&#187;</text><text fill="#000000" font-family="sans-serif" font-size="14" lengthAdjust="spacing" textLength="18" x="612.5" y="156.292">An</text><text fill="#000000" font-family="sans-serif" font-size="14" lengthAdjust="spacing" textLength="4" x="630.5" y="156.292">&#160;</text><text fill="#000000" font-family="sans-serif" font-size="14" lengthAdjust="spacing" textLength="71" x="634.5" y="156.292">aggregate</text></g><!--entity SomethingHappened_System--><g id="elem_SomethingHappened_System"><path d="M380.5,185 L380.5,248.8906 A2.5,2.5 0 0 0 383,251.3906 L531,251.3906 A2.5,2.5 0 0 0 533.5,248.8906 L533.5,192.5 L523.5,182.5 L383,182.5 A2.5,2.5 0 0 0 380.5,185 " fill="#FCD5ED" style="stroke:#181818;stroke-width:0.5;"/><path d="M523.5,182.5 L523.5,190 A2.5,2.5 0 0 0 526,192.5 L533.5,192.5 " fill="#FCD5ED" style="stroke:#181818;stroke-width:0.5;"/><text fill="#000000" font-family="sans-serif" font-size="14" font-style="italic" lengthAdjust="spacing" textLength="69" x="422.5" y="205.4951">&#171;System&#187;</text><text fill="#000000" font-family="sans-serif" font-size="14" lengthAdjust="spacing" textLength="9" x="390.5" y="221.792">A</text><text fill="#000000" font-family="sans-serif" font-size="14" lengthAdjust="spacing" textLength="4" x="399.5" y="221.792">&#160;</text><text fill="#000000" font-family="sans-serif" font-size="14" lengthAdjust="spacing" textLength="50" x="403.5" y="221.792">system</text><text fill="#000000" font-family="sans-serif" font-size="14" lengthAdjust="spacing" textLength="4" x="453.5" y="221.792">&#160;</text><text fill="#000000" font-family="sans-serif" font-size="14" lengthAdjust="spacing" textLength="27" x="457.5" y="221.792">that</text><text fill="#000000" font-family="sans-serif" font-size="14" lengthAdjust="spacing" textLength="4" x="484.5" y="221.792">&#160;</text><text fill="#000000" font-family="sans-serif" font-size="14" lengthAdjust="spacing" textLength="35" x="488.5" y="221.792">does</text><text fill="#000000" font-family="sans-serif" font-size="14" lengthAdjust="spacing" textLength="74" x="420" y="238.0889">something</text></g><!--entity SomethingHappened_Command--><g id="elem_SomethingHappened_Command"><path d="M250,193 L250,240.5938 A2.5,2.5 0 0 0 252.5,243.0938 L365.5,243.0938 A2.5,2.5 0 0 0 368,240.5938 L368,200.5 L358,190.5 L252.5,190.5 A2.5,2.5 0 0 0 250,193 " fill="#25ABFD" style="stroke:#181818;stroke-width:0.5;"/><path d="M358,190.5 L358,198 A2.5,2.5 0 0 0 360.5,200.5 L368,200.5 " fill="#25ABFD" style="stroke:#181818;stroke-width:0.5;"/><text fill="#000000" font-family="sans-serif" font-size="14" font-style="italic" lengthAdjust="spacing" textLength="89" x="264.5" y="213.4951">&#171;Command&#187;</text><text fill="#000000" font-family="sans-serif" font-size="14" lengthAdjust="spacing" textLength="20" x="260" y="229.792">Do</text><text fill="#000000" font-family="sans-serif" font-size="14" lengthAdjust="spacing" textLength="4" x="280" y="229.792">&#160;</text><text fill="#000000" font-family="sans-serif" font-size="14" lengthAdjust="spacing" textLength="74" x="284" y="229.792">something</text></g><!--entity SomethingHappened_Policy--><g id="elem_SomethingHappened_Policy"><path d="M79.5,193 L79.5,240.5938 A2.5,2.5 0 0 0 82,243.0938 L154,243.0938 A2.5,2.5 0 0 0 156.5,240.5938 L156.5,200.5 L146.5,190.5 L82,190.5 A2.5,2.5 0 0 0 79.5,193 " fill="#E9BEFF" style="stroke:#181818;stroke-width:0.5;"/><path d="M146.5,190.5 L146.5,198 A2.5,2.5 0 0 0 149,200.5 L156.5,200.5 " fill="#E9BEFF" style="stroke:#181818;stroke-width:0.5;"/><text fill="#000000" font-family="sans-serif" font-size="14" font-style="italic" lengthAdjust="spacing" textLength="57" x="89.5" y="213.4951">&#171;Policy&#187;</text><text fill="#000000" font-family="sans-serif" font-size="14" lengthAdjust="spacing" textLength="9" x="92" y="229.792">A</text><text fill="#000000" font-family="sans-serif" font-size="14" lengthAdjust="spacing" textLength="4" x="101" y="229.792">&#160;</text><text fill="#000000" font-family="sans-serif" font-size="14" lengthAdjust="spacing" textLength="39" x="105" y="229.792">policy</text></g><!--entity SomethingHappened_User--><g id="elem_SomethingHappened_User"><ellipse cx="203" cy="190.6506" fill="#FDF72D" rx="12.6506" ry="12.6506" style="stroke:#181818;stroke-width:0.5;"/><rect fill="#FDF72D" height="52.5938" rx="12.6506" ry="12.6506" style="stroke:#181818;stroke-width:0.5;" width="69" x="168.5" y="203.3012"/><text fill="#000000" font-family="sans-serif" font-size="14" font-style="italic" lengthAdjust="spacing" textLength="49" x="178.5" y="226.2963">&#171;User&#187;</text><text fill="#000000" font-family="sans-serif" font-size="14" lengthAdjust="spacing" textLength="9" x="181" y="242.5932">A</text><text fill="#000000" font-family="sans-serif" font-size="14" lengthAdjust="spacing" textLength="4" x="190" y="242.5932">&#160;</text><text fill="#000000" font-family="sans-serif" font-size="14" lengthAdjust="spacing" textLength="31" x="194" y="242.5932">user</text></g><!--entity SomethingHappened_ReadModel--><g id="elem_SomethingHappened_ReadModel"><path d="M353,266.5 L353,330.3906 A2.5,2.5 0 0 0 355.5,332.8906 L562.5,332.8906 A2.5,2.5 0 0 0 565,330.3906 L565,274 L555,264 L355.5,264 A2.5,2.5 0 0 0 353,266.5 " fill="#B3E300" style="stroke:#181818;stroke-width:0.5;"/><path d="M555,264 L555,271.5 A2.5,2.5 0 0 0 557.5,274 L565,274 " fill="#B3E300" style="stroke:#181818;stroke-width:0.5;"/><text fill="#000000" font-family="sans-serif" font-size="14" font-style="italic" lengthAdjust="spacing" textLength="96" x="411" y="286.9951">&#171;ReadModel&#187;</text><text fill="#000000" font-family="sans-serif" font-size="14" lengthAdjust="spacing" textLength="32" x="363" y="303.292">Data</text><text fill="#000000" font-family="sans-serif" font-size="14" lengthAdjust="spacing" textLength="4" x="395" y="303.292">&#160;</text><text fill="#000000" font-family="sans-serif" font-size="14" lengthAdjust="spacing" textLength="54" x="399" y="303.292">needed</text><text fill="#000000" font-family="sans-serif" font-size="14" lengthAdjust="spacing" textLength="4" x="453" y="303.292">&#160;</text><text fill="#000000" font-family="sans-serif" font-size="14" lengthAdjust="spacing" textLength="14" x="457" y="303.292">to</text><text fill="#000000" font-family="sans-serif" font-size="14" lengthAdjust="spacing" textLength="4" x="471" y="303.292">&#160;</text><text fill="#000000" font-family="sans-serif" font-size="14" lengthAdjust="spacing" textLength="18" x="475" y="303.292">for</text><text fill="#000000" font-family="sans-serif" font-size="14" lengthAdjust="spacing" textLength="4" x="493" y="303.292">&#160;</text><text fill="#000000" font-family="sans-serif" font-size="14" lengthAdjust="spacing" textLength="58" x="497" y="303.292">decision</text><text fill="#000000" font-family="sans-serif" font-size="14" lengthAdjust="spacing" textLength="50" x="434" y="319.5889">making</text></g><!--entity ABlocker--><g id="elem_ABlocker"><path d="M500,119.5 L500,167.0938 A2.5,2.5 0 0 0 502.5,169.5938 L587.5,169.5938 A2.5,2.5 0 0 0 590,167.0938 L590,127 L580,117 L502.5,117 A2.5,2.5 0 0 0 500,119.5 " fill="#E300B7" style="stroke:#181818;stroke-width:0.5;"/><path d="M580,117 L580,124.5 A2.5,2.5 0 0 0 582.5,127 L590,127 " fill="#E300B7" style="stroke:#181818;stroke-width:0.5;"/><text fill="#000000" font-family="sans-serif" font-size="14" font-style="italic" lengthAdjust="spacing" textLength="70" x="510" y="139.9951">&#171;Blocker&#187;</text><text fill="#000000" font-family="sans-serif" font-size="14" lengthAdjust="spacing" textLength="9" x="513" y="156.292">A</text><text fill="#000000" font-family="sans-serif" font-size="14" lengthAdjust="spacing" textLength="4" x="522" y="156.292">&#160;</text><text fill="#000000" font-family="sans-serif" font-size="14" lengthAdjust="spacing" textLength="51" x="526" y="156.292">blocker</text></g><!--entity AnOpportunity--><g id="elem_AnOpportunity"><path d="M366.5,119.5 L366.5,167.0938 A2.5,2.5 0 0 0 369,169.5938 L485,169.5938 A2.5,2.5 0 0 0 487.5,167.0938 L487.5,127 L477.5,117 L369,117 A2.5,2.5 0 0 0 366.5,119.5 " fill="#ADFF2F" style="stroke:#181818;stroke-width:0.5;"/><path d="M477.5,117 L477.5,124.5 A2.5,2.5 0 0 0 480,127 L487.5,127 " fill="#ADFF2F" style="stroke:#181818;stroke-width:0.5;"/><text fill="#000000" font-family="sans-serif" font-size="14" font-style="italic" lengthAdjust="spacing" textLength="100" x="377" y="139.9951">&#171;Opportunity&#187;</text><text fill="#000000" font-family="sans-serif" font-size="14" lengthAdjust="spacing" textLength="18" x="376.5" y="156.292">An</text><text fill="#000000" font-family="sans-serif" font-size="14" lengthAdjust="spacing" textLength="4" x="394.5" y="156.292">&#160;</text><text fill="#000000" font-family="sans-serif" font-size="14" lengthAdjust="spacing" textLength="79" x="398.5" y="156.292">opportunity</text></g><!--link SomethingHappened_Aggregate to SomethingHappened--><g id="link_SomethingHappened_Aggregate_SomethingHappened"><path d="M659,170.04 C659,176.61 659,183.67 659,190.26 " fill="none" id="SomethingHappened_Aggregate-SomethingHappened" style="stroke:#181818;stroke-width:1.0;"/></g><!--link SomethingHappened_System to SomethingHappened--><g id="link_SomethingHappened_System_SomethingHappened"><path d="M533.57,217 C537.68,217 541.81,217 545.94,217 " fill="none" id="SomethingHappened_System-SomethingHappened" style="stroke:#181818;stroke-width:1.0;"/></g><!--link SomethingHappened_Command to SomethingHappened_System--><g id="link_SomethingHappened_Command_SomethingHappened_System"><path d="M368.34,217 C372.2,217 376.12,217 380.05,217 " fill="none" id="SomethingHappened_Command-SomethingHappened_System" style="stroke:#181818;stroke-width:1.0;"/></g><!--link SomethingHappened_Policy to SomethingHappened_Command--><g id="link_SomethingHappened_Policy_SomethingHappened_Command"><path d="M118,243.99 C118,252.63 118,260 118,260 C118,260 301.5,260 301.5,260 C301.5,260 301.5,252.63 301.5,243.99 " fill="none" id="SomethingHappened_Policy-SomethingHappened_Command" style="stroke:#181818;stroke-width:1.0;"/></g><!--link SomethingHappened_User to SomethingHappened_Command--><g id="link_SomethingHappened_User_SomethingHappened_Command"><path d="M237.71,217 C241.57,217 245.58,217 249.65,217 " fill="none" id="SomethingHappened_User-SomethingHappened_Command" style="stroke:#181818;stroke-width:1.0;"/></g><!--link SomethingHappened_Input to SomethingHappened_User--><!--link SomethingHappened_User to SomethingHappened_Policy--><!--link SomethingHappened_Policy to SomethingHappened_User--><!--link SomethingHappened_Policy to SomethingHappened_User--><!--link SomethingHappened_User to SomethingHappened_Policy--><!--link SomethingHappened to SomethingHappened_ReadModel--><!--link SomethingHappened_Command to SomethingHappened_ReadModel--><!--link SomethingHappened_Input to SomethingHappened_Policy--><g id="link_SomethingHappened_Input_SomethingHappened_Policy"><path d="M67.07,217 C70.66,217 74.94,217 79.48,217 " fill="none" id="SomethingHappened_Input-SomethingHappened_Policy" style="stroke:#181818;stroke-width:1.0;"/></g><!--link AnOpportunity to SomethingHappened_System--><g id="link_AnOpportunity_SomethingHappened_System"><path d="M434,170.04 C434,174.06 434,178.27 434,182.44 " fill="none" id="AnOpportunity-SomethingHappened_System" style="stroke:#181818;stroke-width:1.0;"/></g><!--link ABlocker to SomethingHappened--><g id="link_ABlocker_SomethingHappened"><path d="M568,170.04 C568,176.61 568,183.67 568,190.26 " fill="none" id="ABlocker-SomethingHappened" style="stroke:#181818;stroke-width:1.0;"/></g><!--SRC=[RL3RQeGm47ttAwPGK67N_GRRNUYBTAdqkKGprR0c4t8fIDb_RuowzfQNpBdCcKpkX6e7pn6Auc1DUpXze7Ar8oE5wWhXvP0ajM-E99bGMLgDO7t38qftK8trYdBuJ22Siw4MhOrMFTVHkF2hRJfpQ9oOfJL9T7qO2ZtJ6XNoq7OZdnPk1_UF92LJF4kF17RLqpmePTSPx9Z3B2qLi1L5xKo3QCSWW8vL9ElHEfGJQMC5hcSEEA7zbVngqKms7-v8l23Z5N4SmZEOOw0GEN9m1EzaW6Chh205abrYH7xR-M6WzZA7DNCPrYmNThCzQqt6UINS69UX3Kz-zKtFarlN3nxs-x__zpQll7Kia_yrHzSrkIPV]--></g></svg>