<?xml version="1.0" encoding="us-ascii" standalone="no"?><svg xmlns="http://www.w3.org/2000/svg" xmlns:xlink="http://www.w3.org/1999/xlink" contentStyleType="text/css" height="347px" preserveAspectRatio="none" style="width:762px;height:347px;background:#FFFFFF;" version="1.1" viewBox="0 0 762 347" width="762px" zoomAndPan="magnify"><defs/><g><!--cluster MySubdomain--><g id="cluster_MySubdomain"><rect fill="#ADD8E6" height="334" rx="35" ry="35" style="stroke:#181818;stroke-width:1.0;" width="749" x="7" y="7"/><text fill="#000000" font-family="sans-serif" font-size="14" font-weight="bold" lengthAdjust="spacing" textLength="113" x="325" y="26.9951">My subdomain</text></g><!--cluster MyProcess--><g id="cluster_MyProcess"><rect fill="none" height="267" rx="2.5" ry="2.5" style="stroke:#181818;stroke-width:1.0;" width="701" x="31" y="50"/><text fill="#000000" font-family="sans-serif" font-size="14" font-weight="bold" lengthAdjust="spacing" textLength="91" x="336" y="64.9951">My process</text></g><!--entity SomethingHappened_Input--><g id="elem_SomethingHappened_Input"><path d="M52,180 L62,180 C67,180 67,185 67,185 C67,185 67,190 62,190 L52,190 C47,190 47,185 47,185 C47,185 47,180 52,180 " fill="#000000" style="stroke:#000000;stroke-width:0.5;"/><path d="M62,180 C57,180 57,185 57,185 C57,190 62,190 62,190 " fill="none" style="stroke:#000000;stroke-width:0.5;"/></g><!--entity SomethingHappened--><g id="elem_SomethingHappened"><path d="M546,161 L546,208.5938 A2.5,2.5 0 0 0 548.5,211.0938 L713.5,211.0938 A2.5,2.5 0 0 0 716,208.5938 L716,168.5 L706,158.5 L548.5,158.5 A2.5,2.5 0 0 0 546,161 " fill="#FF8B00" style="stroke:#181818;stroke-width:0.5;"/><path d="M706,158.5 L706,166 A2.5,2.5 0 0 0 708.5,168.5 L716,168.5 " fill="#FF8B00" style="stroke:#181818;stroke-width:0.5;"/><text fill="#000000" font-family="sans-serif" font-size="14" font-style="italic" lengthAdjust="spacing" textLength="111" x="575.5" y="181.4951">&#171;DomainEvent&#187;</text><text fill="#000000" font-family="sans-serif" font-size="14" lengthAdjust="spacing" textLength="75" x="556" y="197.792">Something</text><text fill="#000000" font-family="sans-serif" font-size="14" lengthAdjust="spacing" textLength="4" x="631" y="197.792">&#160;</text><text fill="#000000" font-family="sans-serif" font-size="14" lengthAdjust="spacing" textLength="71" x="635" y="197.792">happened</text></g><!--entity SomethingHappened_Aggregate--><g id="elem_SomethingHappened_Aggregate"><path d="M602.5,87.5 L602.5,135.0938 A2.5,2.5 0 0 0 605,137.5938 L713,137.5938 A2.5,2.5 0 0 0 715.5,135.0938 L715.5,95 L705.5,85 L605,85 A2.5,2.5 0 0 0 602.5,87.5 " fill="#FFEE88" style="stroke:#181818;stroke-width:0.5;"/><path d="M705.5,85 L705.5,92.5 A2.5,2.5 0 0 0 708,95 L715.5,95 " fill="#FFEE88" style="stroke:#181818;stroke-width:0.5;"/><text fill="#000000" font-family="sans-serif" font-size="14" font-style="italic" lengthAdjust="spacing" textLength="91" x="613.5" y="107.9951">&#171;Aggregate&#187;</text><text fill="#000000" font-family="sans-serif" font-size="14" lengthAdjust="spacing" textLength="18" x="612.5" y="124.292">An</text><text fill="#000000" font-family="sans-serif" font-size="14" lengthAdjust="spacing" textLength="4" x="630.5" y="124.292">&#160;</text><text fill="#000000" font-family="sans-serif" font-size="14" lengthAdjust="spacing" textLength="71" x="634.5" y="124.292">aggregate</text></g><!--entity SomethingHappened_System--><g id="elem_SomethingHappened_System"><path d="M380.5,153 L380.5,216.8906 A2.5,2.5 0 0 0 383,219.3906 L531,219.3906 A2.5,2.5 0 0 0 533.5,216.8906 L533.5,160.5 L523.5,150.5 L383,150.5 A2.5,2.5 0 0 0 380.5,153 " fill="#FCD5ED" style="stroke:#181818;stroke-width:0.5;"/><path d="M523.5,150.5 L523.5,158 A2.5,2.5 0 0 0 526,160.5 L533.5,160.5 " fill="#FCD5ED" style="stroke:#181818;stroke-width:0.5;"/><text fill="#000000" font-family="sans-serif" font-size="14" font-style="italic" lengthAdjust="spacing" textLength="69" x="422.5" y="173.4951">&#171;System&#187;</text><text fill="#000000" font-family="sans-serif" font-size="14" lengthAdjust="spacing" textLength="9" x="390.5" y="189.792">A</text><text fill="#000000" font-family="sans-serif" font-size="14" lengthAdjust="spacing" textLength="4" x="399.5" y="189.792">&#160;</text><text fill="#000000" font-family="sans-serif" font-size="14" lengthAdjust="spacing" textLength="50" x="403.5" y="189.792">system</text><text fill="#000000" font-family="sans-serif" font-size="14" lengthAdjust="spacing" textLength="4" x="453.5" y="189.792">&#160;</text><text fill="#000000" font-family="sans-serif" font-size="14" lengthAdjust="spacing" textLength="27" x="457.5" y="189.792">that</text><text fill="#000000" font-family="sans-serif" font-size="14" lengthAdjust="spacing" textLength="4" x="484.5" y="189.792">&#160;</text><text fill="#000000" font-family="sans-serif" font-size="14" lengthAdjust="spacing" textLength="35" x="488.5" y="189.792">does</text><text fill="#000000" font-family="sans-serif" font-size="14" lengthAdjust="spacing" textLength="74" x="420" y="206.0889">something</text></g><!--entity SomethingHappened_Command--><g id="elem_SomethingHappened_Command"><path d="M250,161 L250,208.5938 A2.5,2.5 0 0 0 252.5,211.0938 L365.5,211.0938 A2.5,2.5 0 0 0 368,208.5938 L368,168.5 L358,158.5 L252.5,158.5 A2.5,2.5 0 0 0 250,161 " fill="#25ABFD" style="stroke:#181818;stroke-width:0.5;"/><path d="M358,158.5 L358,166 A2.5,2.5 0 0 0 360.5,168.5 L368,168.5 " fill="#25ABFD" style="stroke:#181818;stroke-width:0.5;"/><text fill="#000000" font-family="sans-serif" font-size="14" font-style="italic" lengthAdjust="spacing" textLength="89" x="264.5" y="181.4951">&#171;Command&#187;</text><text fill="#000000" font-family="sans-serif" font-size="14" lengthAdjust="spacing" textLength="20" x="260" y="197.792">Do</text><text fill="#000000" font-family="sans-serif" font-size="14" lengthAdjust="spacing" textLength="4" x="280" y="197.792">&#160;</text><text fill="#000000" font-family="sans-serif" font-size="14" lengthAdjust="spacing" textLength="74" x="284" y="197.792">something</text></g><!--entity SomethingHappened_Policy--><g id="elem_SomethingHappened_Policy"><path d="M79.5,161 L79.5,208.5938 A2.5,2.5 0 0 0 82,211.0938 L154,211.0938 A2.5,2.5 0 0 0 156.5,208.5938 L156.5,168.5 L146.5,158.5 L82,158.5 A2.5,2.5 0 0 0 79.5,161 " fill="#E9BEFF" style="stroke:#181818;stroke-width:0.5;"/><path d="M146.5,158.5 L146.5,166 A2.5,2.5 0 0 0 149,168.5 L156.5,168.5 " fill="#E9BEFF" style="stroke:#181818;stroke-width:0.5;"/><text fill="#000000" font-family="sans-serif" font-size="14" font-style="italic" lengthAdjust="spacing" textLength="57" x="89.5" y="181.4951">&#171;Policy&#187;</text><text fill="#000000" font-family="sans-serif" font-size="14" lengthAdjust="spacing" textLength="9" x="92" y="197.792">A</text><text fill="#000000" font-family="sans-serif" font-size="14" lengthAdjust="spacing" textLength="4" x="101" y="197.792">&#160;</text><text fill="#000000" font-family="sans-serif" font-size="14" lengthAdjust="spacing" textLength="39" x="105" y="197.792">policy</text></g><!--entity SomethingHappened_User--><g id="elem_SomethingHappened_User"><ellipse cx="203" cy="158.6506" fill="#FDF72D" rx="12.6506" ry="12.6506" style="stroke:#181818;stroke-width:0.5;"/><rect fill="#FDF72D" height="52.5938" rx="12.6506" ry="12.6506" style="stroke:#181818;stroke-width:0.5;" width="69" x="168.5" y="171.3012"/><text fill="#000000" font-family="sans-serif" font-size="14" font-style="italic" lengthAdjust="spacing" textLength="49" x="178.5" y="194.2963">&#171;User&#187;</text><text fill="#000000" font-family="sans-serif" font-size="14" lengthAdjust="spacing" textLength="9" x="181" y="210.5932">A</text><text fill="#000000" font-family="sans-serif" font-size="14" lengthAdjust="spacing" textLength="4" x="190" y="210.5932">&#160;</text><text fill="#000000" font-family="sans-serif" font-size="14" lengthAdjust="spacing" textLength="31" x="194" y="210.5932">user</text></g><!--entity SomethingHappened_ReadModel--><g id="elem_SomethingHappened_ReadModel"><path d="M353,234.5 L353,298.3906 A2.5,2.5 0 0 0 355.5,300.8906 L562.5,300.8906 A2.5,2.5 0 0 0 565,298.3906 L565,242 L555,232 L355.5,232 A2.5,2.5 0 0 0 353,234.5 " fill="#B3E300" style="stroke:#181818;stroke-width:0.5;"/><path d="M555,232 L555,239.5 A2.5,2.5 0 0 0 557.5,242 L565,242 " fill="#B3E300" style="stroke:#181818;stroke-width:0.5;"/><text fill="#000000" font-family="sans-serif" font-size="14" font-style="italic" lengthAdjust="spacing" textLength="96" x="411" y="254.9951">&#171;ReadModel&#187;</text><text fill="#000000" font-family="sans-serif" font-size="14" lengthAdjust="spacing" textLength="32" x="363" y="271.292">Data</text><text fill="#000000" font-family="sans-serif" font-size="14" lengthAdjust="spacing" textLength="4" x="395" y="271.292">&#160;</text><text fill="#000000" font-family="sans-serif" font-size="14" lengthAdjust="spacing" textLength="54" x="399" y="271.292">needed</text><text fill="#000000" font-family="sans-serif" font-size="14" lengthAdjust="spacing" textLength="4" x="453" y="271.292">&#160;</text><text fill="#000000" font-family="sans-serif" font-size="14" lengthAdjust="spacing" textLength="14" x="457" y="271.292">to</text><text fill="#000000" font-family="sans-serif" font-size="14" lengthAdjust="spacing" textLength="4" x="471" y="271.292">&#160;</text><text fill="#000000" font-family="sans-serif" font-size="14" lengthAdjust="spacing" textLength="18" x="475" y="271.292">for</text><text fill="#000000" font-family="sans-serif" font-size="14" lengthAdjust="spacing" textLength="4" x="493" y="271.292">&#160;</text><text fill="#000000" font-family="sans-serif" font-size="14" lengthAdjust="spacing" textLength="58" x="497" y="271.292">decision</text><text fill="#000000" font-family="sans-serif" font-size="14" lengthAdjust="spacing" textLength="50" x="434" y="287.5889">making</text></g><!--entity ABlocker--><g id="elem_ABlocker"><path d="M500,87.5 L500,135.0938 A2.5,2.5 0 0 0 502.5,137.5938 L587.5,137.5938 A2.5,2.5 0 0 0 590,135.0938 L590,95 L580,85 L502.5,85 A2.5,2.5 0 0 0 500,87.5 " fill="#E300B7" style="stroke:#181818;stroke-width:0.5;"/><path d="M580,85 L580,92.5 A2.5,2.5 0 0 0 582.5,95 L590,95 " fill="#E300B7" style="stroke:#181818;stroke-width:0.5;"/><text fill="#000000" font-family="sans-serif" font-size="14" font-style="italic" lengthAdjust="spacing" textLength="70" x="510" y="107.9951">&#171;Blocker&#187;</text><text fill="#000000" font-family="sans-serif" font-size="14" lengthAdjust="spacing" textLength="9" x="513" y="124.292">A</text><text fill="#000000" font-family="sans-serif" font-size="14" lengthAdjust="spacing" textLength="4" x="522" y="124.292">&#160;</text><text fill="#000000" font-family="sans-serif" font-size="14" lengthAdjust="spacing" textLength="51" x="526" y="124.292">blocker</text></g><!--entity AnOpportunity--><g id="elem_AnOpportunity"><path d="M366.5,87.5 L366.5,135.0938 A2.5,2.5 0 0 0 369,137.5938 L485,137.5938 A2.5,2.5 0 0 0 487.5,135.0938 L487.5,95 L477.5,85 L369,85 A2.5,2.5 0 0 0 366.5,87.5 " fill="#ADFF2F" style="stroke:#181818;stroke-width:0.5;"/><path d="M477.5,85 L477.5,92.5 A2.5,2.5 0 0 0 480,95 L487.5,95 " fill="#ADFF2F" style="stroke:#181818;stroke-width:0.5;"/><text fill="#000000" font-family="sans-serif" font-size="14" font-style="italic" lengthAdjust="spacing" textLength="100" x="377" y="107.9951">&#171;Opportunity&#187;</text><text fill="#000000" font-family="sans-serif" font-size="14" lengthAdjust="spacing" textLength="18" x="376.5" y="124.292">An</text><text fill="#000000" font-family="sans-serif" font-size="14" lengthAdjust="spacing" textLength="4" x="394.5" y="124.292">&#160;</text><text fill="#000000" font-family="sans-serif" font-size="14" lengthAdjust="spacing" textLength="79" x="398.5" y="124.292">opportunity</text></g><!--link SomethingHappened_Aggregate to SomethingHappened--><g id="link_SomethingHappened_Aggregate_SomethingHappened"><path d="M659,138.04 C659,144.61 659,151.67 659,158.26 " fill="none" id="SomethingHappened_Aggregate-SomethingHappened" style="stroke:#181818;stroke-width:1.0;"/></g><!--link SomethingHappened_System to SomethingHappened--><g id="link_SomethingHappened_System_SomethingHappened"><path d="M533.57,185 C537.68,185 541.81,185 545.94,185 " fill="none" id="SomethingHappened_System-SomethingHappened" style="stroke:#181818;stroke-width:1.0;"/></g><!--link SomethingHappened_Command to SomethingHappened_System--><g id="link_SomethingHappened_Command_SomethingHappened_System"><path d="M368.34,185 C372.2,185 376.12,185 380.05,185 " fill="none" id="SomethingHappened_Command-SomethingHappened_System" style="stroke:#181818;stroke-width:1.0;"/></g><!--link SomethingHappened_Policy to SomethingHappened_Command--><g id="link_SomethingHappened_Policy_SomethingHappened_Command"><path d="M118,211.99 C118,220.63 118,228 118,228 C118,228 301.5,228 301.5,228 C301.5,228 301.5,220.63 301.5,211.99 " fill="none" id="SomethingHappened_Policy-SomethingHappened_Command" style="stroke:#181818;stroke-width:1.0;"/></g><!--link SomethingHappened_User to SomethingHappened_Command--><g id="link_SomethingHappened_User_SomethingHappened_Command"><path d="M237.71,185 C241.57,185 245.58,185 249.65,185 " fill="none" id="SomethingHappened_User-SomethingHappened_Command" style="stroke:#181818;stroke-width:1.0;"/></g><!--link SomethingHappened_Input to SomethingHappened_User--><!--link SomethingHappened_User to SomethingHappened_Policy--><!--link SomethingHappened_Policy to SomethingHappened_User--><!--link SomethingHappened_Policy to SomethingHappened_User--><!--link SomethingHappened_User to SomethingHappened_Policy--><!--link SomethingHappened to SomethingHappened_ReadModel--><!--link SomethingHappened_Command to SomethingHappened_ReadModel--><!--link SomethingHappened_Input to SomethingHappened_Policy--><g id="link_SomethingHappened_Input_SomethingHappened_Policy"><path d="M67.07,185 C70.66,185 74.94,185 79.48,185 " fill="none" id="SomethingHappened_Input-SomethingHappened_Policy" style="stroke:#181818;stroke-width:1.0;"/></g><!--link AnOpportunity to SomethingHappened_System--><g id="link_AnOpportunity_SomethingHappened_System"><path d="M434,138.04 C434,142.06 434,146.27 434,150.44 " fill="none" id="AnOpportunity-SomethingHappened_System" style="stroke:#181818;stroke-width:1.0;"/></g><!--link ABlocker to SomethingHappened--><g id="link_ABlocker_SomethingHappened"><path d="M568,138.04 C568,144.61 568,151.67 568,158.26 " fill="none" id="ABlocker-SomethingHappened" style="stroke:#181818;stroke-width:1.0;"/></g><!--SRC=[RL3RQeGm47ttAwPGK67N_GRRNUYBTAdqkKGprR0c4t8fIDb_RuowzfQNpBdCcKpkX6e7pn6Auc1DUpXze7Ar8oE5wWhXvP0ajM-E99bGMLgDO7t38qftK8trYdBuJ22Siw4MhOrMFTVHkF2hRJfpQ9oOfJL9T7qO2ZtJ6XNoq7OZdnPk1_UF92LJF4kF17RLqpmePTSPx9Z3B2qLi1L5xKo3QCSWW8vL9ElHEfGJQMC5hcSEEA7zbVngqKms7-v8l23Z5N4SmZEOOw0GEN9m1EzaW6Chh205abrYH7xR-M6WzZA7DNCPrYmNThCzQqt6UINS69UX3Kz-zKtFarlN3nxs-x__zpQll7Kia_yrHzSrkIPV]--></g></svg>